<?xml version="1.0" encoding="UTF-8"?>
<svg xmlns="http://www.w3.org/2000/svg" xmlns:xlink="http://www.w3.org/1999/xlink" width="3000" height="3000" viewBox="0 0 3000 3000">
<path fill-rule="evenodd" fill="rgb(0%, 0%, 0%)" fill-opacity="1" d="M 1382.121094 26.371094 C 1403.601562 174.578125 1389.121094 238.089844 1353.828125 344.609375 C 1302.839844 498.5 902.351562 689.550781 836.835938 887.28125 C 755.234375 1133.558594 998.316406 1209.339844 1129.101562 1375.371094 C 1176 1434.910156 1094.328125 1542.289062 1060.648438 1597.050781 C 1178.601562 1513.671875 1239.769531 1435.359375 1152.699219 1358.410156 C 1013.960938 1235.800781 942.324219 1179.261719 943.574219 999.078125 C 946.683594 550.171875 1305.730469 598.828125 1402.328125 409.558594 C 1449.378906 317.390625 1482.398438 181.558594 1382.121094 26.371094 "/>
<path fill="none" stroke-width="50" stroke-linecap="round" stroke-linejoin="round" stroke="rgb(0%, 0%, 0%)" stroke-opacity="1" stroke-miterlimit="10" d="M 13821.210938 29736.289062 C 14036.015625 28254.21875 13891.210938 27619.101562 13538.28125 26553.90625 C 13028.398438 25015 9023.515625 23104.492188 8368.359375 21127.1875 C 7552.34375 18664.414062 9983.164062 17906.601562 11291.015625 16246.289062 C 11760 15650.898438 10943.28125 14577.109375 10606.484375 14029.492188 C 11786.015625 14863.28125 12397.695312 15646.40625 11526.992188 16415.898438 C 10139.609375 17641.992188 9423.242188 18207.382812 9435.742188 20009.21875 C 9466.835938 24498.28125 13057.304688 24011.71875 14023.28125 25904.414062 C 14493.789062 26826.09375 14823.984375 28184.414062 13821.210938 29736.289062 Z M 13821.210938 29736.289062 " transform="matrix(0.1, 0, 0, -0.1, 0, 3000)"/>
<path fill-rule="evenodd" fill="rgb(0%, 0%, 0%)" fill-opacity="1" d="M 1335.53125 23.921875 C 1188.28125 79.148438 1131.769531 132.851562 1053.808594 222.578125 C 941.171875 352.210938 1075.441406 665.238281 873.257812 667.050781 C 1037.5 586.871094 848.921875 390.121094 968.835938 197.269531 C 1027.238281 103.359375 1138.621094 5.03125 1335.53125 23.921875 "/>
<path fill="none" stroke-width="50" stroke-linecap="round" stroke-linejoin="round" stroke="rgb(0%, 0%, 0%)" stroke-opacity="1" stroke-miterlimit="10" d="M 13355.3125 29760.78125 C 11882.8125 29208.515625 11317.695312 28671.484375 10538.085938 27774.21875 C 9411.71875 26477.890625 10754.414062 23347.617188 8732.578125 23329.492188 C 10375 24131.289062 8489.21875 26098.789062 9688.359375 28027.304688 C 10272.382812 28966.40625 11386.210938 29949.6875 13355.3125 29760.78125 Z M 13355.3125 29760.78125 " transform="matrix(0.1, 0, 0, -0.1, 0, 3000)"/>
<path fill-rule="evenodd" fill="rgb(0%, 0%, 0%)" fill-opacity="1" d="M 1787.488281 1369.550781 C 1736.160156 1518.019531 1741.53125 1595.730469 1761 1712.921875 C 1789.140625 1882.230469 2116.210938 1978.648438 1988.640625 2135.28125 C 2031.570312 1957.839844 1759.539062 1977.359375 1687.289062 1762.128906 C 1652.101562 1657.308594 1647.308594 1508.929688 1787.488281 1369.550781 "/>
<path fill="none" stroke-width="50" stroke-linecap="round" stroke-linejoin="round" stroke="rgb(0%, 0%, 0%)" stroke-opacity="1" stroke-miterlimit="10" d="M 17874.882812 16304.492188 C 17361.601562 14819.804688 17415.3125 14042.695312 17610 12870.78125 C 17891.40625 11177.695312 21162.109375 10213.515625 19886.40625 8647.1875 C 20315.703125 10421.601562 17595.390625 10226.40625 16872.890625 12378.710938 C 16521.015625 13426.914062 16473.085938 14910.703125 17874.882812 16304.492188 Z M 17874.882812 16304.492188 " transform="matrix(0.1, 0, 0, -0.1, 0, 3000)"/>
<path fill-rule="evenodd" fill="rgb(0%, 0%, 0%)" fill-opacity="1" d="M 2046.699219 2290.839844 C 2046.371094 2447.902344 2038.910156 2486.257812 2094.410156 2591.324219 C 2183.410156 2759.796875 2472.828125 2649.296875 2485.691406 2950.03125 C 2298.820312 2607.394531 2135.160156 2747.742188 2028.949219 2629.078125 C 1955.171875 2546.65625 1959.371094 2468.078125 2046.699219 2290.839844 "/>
<path fill="none" stroke-width="50" stroke-linecap="round" stroke-linejoin="round" stroke="rgb(0%, 0%, 0%)" stroke-opacity="1" stroke-miterlimit="10" d="M 20466.992188 7091.601562 C 20463.710938 5520.976562 20389.101562 5137.421875 20944.101562 4086.757812 C 21834.101562 2402.03125 24728.28125 3507.03125 24856.914062 499.6875 C 22988.203125 3926.054688 21351.601562 2522.578125 20289.492188 3709.21875 C 19551.71875 4533.4375 19593.710938 5319.21875 20466.992188 7091.601562 Z M 20466.992188 7091.601562 " transform="matrix(0.1, 0, 0, -0.1, 0, 3000)"/>
<path fill-rule="evenodd" fill="rgb(0%, 0%, 0%)" fill-opacity="1" d="M 1559.359375 258.671875 C 1566.28125 408.289062 1582.488281 466.269531 1622.878906 570.941406 C 1696.808594 762.550781 1895.128906 726.679688 1971.171875 849.75 C 1991.730469 883.03125 2016.738281 961.191406 2006.109375 1092.839844 C 1996.320312 966.78125 1964.640625 910.71875 1931.21875 875.871094 C 1745.660156 682.378906 1672.058594 732.761719 1562.171875 554.320312 C 1521.730469 488.660156 1523.789062 389.710938 1559.359375 258.671875 "/>
<path fill="none" stroke-width="50" stroke-linecap="round" stroke-linejoin="round" stroke="rgb(0%, 0%, 0%)" stroke-opacity="1" stroke-miterlimit="10" d="M 15593.59375 27413.28125 C 15662.8125 25917.109375 15824.882812 25337.304688 16228.789062 24290.585938 C 16968.085938 22374.492188 18951.289062 22733.203125 19711.71875 21502.5 C 19917.304688 21169.6875 20167.382812 20388.085938 20061.09375 19071.601562 C 19963.203125 20332.1875 19646.40625 20892.8125 19312.1875 21241.289062 C 17456.601562 23176.210938 16720.585938 22672.382812 15621.71875 24456.796875 C 15217.304688 25113.398438 15237.890625 26102.890625 15593.59375 27413.28125 Z M 15593.59375 27413.28125 " transform="matrix(0.1, 0, 0, -0.1, 0, 3000)"/>
<path fill-rule="evenodd" fill="rgb(0%, 0%, 0%)" fill-opacity="1" d="M 1868.609375 913.390625 C 1863.5 1080.351562 1890.25 1148.089844 1948.570312 1259.960938 C 2032.820312 1421.589844 2652.871094 1366.789062 2796.179688 1551.710938 C 2865.199219 1640.761719 2913.609375 1794.511719 2742.71875 1987.03125 C 2820.878906 1840.929688 2782.609375 1774.511719 2723.859375 1692.121094 C 2472.398438 1339.511719 2055.238281 1440.808594 1898.558594 1339.390625 C 1799.96875 1275.570312 1768.199219 1100.660156 1868.609375 913.390625 "/>
<path fill="none" stroke-width="50" stroke-linecap="round" stroke-linejoin="round" stroke="rgb(0%, 0%, 0%)" stroke-opacity="1" stroke-miterlimit="10" d="M 18686.09375 20866.09375 C 18635 19196.484375 18902.5 18519.101562 19485.703125 17400.390625 C 20328.203125 15784.101562 26528.710938 16332.109375 27961.796875 14482.890625 C 28651.992188 13592.382812 29136.09375 12054.882812 27427.1875 10129.6875 C 28208.789062 11590.703125 27826.09375 12254.882812 27238.59375 13078.789062 C 24723.984375 16604.882812 20552.382812 15591.914062 18985.585938 16606.09375 C 17999.6875 17244.296875 17681.992188 18993.398438 18686.09375 20866.09375 Z M 18686.09375 20866.09375 " transform="matrix(0.1, 0, 0, -0.1, 0, 3000)"/>
<path fill-rule="evenodd" fill="rgb(0%, 0%, 0%)" fill-opacity="1" d="M 1507.28125 119.558594 C 1669.511719 154.75 1757.691406 194.078125 1851.539062 277.96875 C 2077.96875 480.371094 2039.371094 927.050781 2168.53125 1122.238281 C 2262.398438 1264.109375 2457.398438 1370.511719 2804.640625 1250.609375 C 2566.058594 1290.71875 2521.121094 1282.121094 2322.078125 1134.160156 C 1983.578125 882.539062 2074.769531 430.238281 1923.21875 242.03125 C 1849.410156 150.371094 1712.03125 66.539062 1507.28125 119.558594 "/>
<path fill="none" stroke-width="50" stroke-linecap="round" stroke-linejoin="round" stroke="rgb(0%, 0%, 0%)" stroke-opacity="1" stroke-miterlimit="10" d="M 15072.8125 28804.414062 C 16695.117188 28452.5 17576.914062 28059.21875 18515.390625 27220.3125 C 20779.6875 25196.289062 20393.710938 20729.492188 21685.3125 18777.617188 C 22623.984375 17358.90625 24573.984375 16294.882812 28046.40625 17493.90625 C 25660.585938 17092.8125 25211.210938 17178.789062 23220.78125 18658.398438 C 19835.78125 21174.609375 20747.695312 25697.617188 19232.1875 27579.6875 C 18494.101562 28496.289062 17120.3125 29334.609375 15072.8125 28804.414062 Z M 15072.8125 28804.414062 " transform="matrix(0.1, 0, 0, -0.1, 0, 3000)"/>
<path fill-rule="evenodd" fill="rgb(0%, 0%, 0%)" fill-opacity="1" d="M 2352.058594 1669.941406 C 2350.371094 1783.199219 2370.988281 1828.25 2415.5 1902.210938 C 2479.808594 2009.0625 2863.589844 2092.304688 2946.230469 2229.59375 C 3069.941406 2435.132812 2828.371094 2590.492188 2646.039062 2689.820312 C 2771.28125 2575.625 2891.429688 2494.347656 2863.339844 2328.289062 C 2807.019531 1995.25 2489.171875 2084.019531 2379.519531 1957.570312 C 2326.128906 1895.988281 2280.160156 1799.929688 2352.058594 1669.941406 "/>
<path fill="none" stroke-width="50" stroke-linecap="round" stroke-linejoin="round" stroke="rgb(0%, 0%, 0%)" stroke-opacity="1" stroke-miterlimit="10" d="M 23520.585938 13300.585938 C 23503.710938 12168.007812 23709.882812 11717.5 24155 10977.890625 C 24798.085938 9909.375 28635.898438 9076.953125 29462.304688 7704.0625 C 30699.414062 5648.671875 28283.710938 4095.078125 26460.390625 3101.796875 C 27712.8125 4243.75 28914.296875 5056.523438 28633.398438 6717.109375 C 28070.195312 10047.5 24891.71875 9159.804688 23795.195312 10424.296875 C 23261.289062 11040.117188 22801.601562 12000.703125 23520.585938 13300.585938 Z M 23520.585938 13300.585938 " transform="matrix(0.1, 0, 0, -0.1, 0, 3000)"/>
<path fill-rule="evenodd" fill="rgb(0%, 0%, 0%)" fill-opacity="1" d="M 935.738281 1282.980469 C 889.351562 1386.339844 890.453125 1435.871094 902.0625 1521.371094 C 918.835938 1644.910156 1238.398438 1872.859375 1259.949219 2031.589844 C 1292.210938 2269.214844 1008.820312 2316.566406 802.015625 2335.828125 C 962.261719 2280.371094 1104.808594 2253.144531 1144.75 2089.523438 C 1224.851562 1761.378906 897.75 1717.449219 847.097656 1558.019531 C 822.429688 1480.378906 818.238281 1374 935.738281 1282.980469 "/>
<path fill="none" stroke-width="50" stroke-linecap="round" stroke-linejoin="round" stroke="rgb(0%, 0%, 0%)" stroke-opacity="1" stroke-miterlimit="10" d="M 9357.382812 17170.195312 C 8893.515625 16136.601562 8904.53125 15641.289062 9020.625 14786.289062 C 9188.359375 13550.898438 12383.984375 11271.40625 12599.492188 9684.101562 C 12922.109375 7307.851562 10088.203125 6834.335938 8020.15625 6641.71875 C 9622.617188 7196.289062 11048.085938 7468.554688 11447.5 9104.765625 C 12248.515625 12386.210938 8977.5 12825.507812 8470.976562 14419.804688 C 8224.296875 15196.210938 8182.382812 16260 9357.382812 17170.195312 Z M 9357.382812 17170.195312 " transform="matrix(0.1, 0, 0, -0.1, 0, 3000)"/>
<path fill-rule="evenodd" fill="rgb(0%, 0%, 0%)" fill-opacity="1" d="M 234.34375 1468.101562 C 346.078125 1448.589844 396.007812 1429.019531 450.992188 1362.449219 C 691.34375 1071.460938 442.699219 888.539062 780.0625 698.449219 C 518.019531 1029.308594 706.4375 1142.128906 512.183594 1387.390625 C 461.582031 1451.289062 375.664062 1514.328125 234.34375 1468.101562 "/>
<path fill="none" stroke-width="50" stroke-linecap="round" stroke-linejoin="round" stroke="rgb(0%, 0%, 0%)" stroke-opacity="1" stroke-miterlimit="10" d="M 2343.4375 15318.984375 C 3460.78125 15514.101562 3960.078125 15709.804688 4509.921875 16375.507812 C 6913.4375 19285.390625 4426.992188 21114.609375 7800.625 23015.507812 C 5180.195312 19706.914062 7064.375 18578.710938 5121.835938 16126.09375 C 4615.820312 15487.109375 3756.640625 14856.71875 2343.4375 15318.984375 Z M 2343.4375 15318.984375 " transform="matrix(0.1, 0, 0, -0.1, 0, 3000)"/>
<path fill-rule="evenodd" fill="rgb(0%, 0%, 0%)" fill-opacity="1" d="M 865.328125 1268 C 760.300781 1310.769531 726.851562 1347.359375 676.121094 1417.210938 C 602.828125 1518.140625 676.351562 1903.359375 582.179688 2033.035156 C 441.199219 2227.164062 203.464844 2066.011719 40.558594 1937.359375 C 194.816406 2007.734375 316.753906 2086.320312 458.785156 1995.511719 C 743.640625 1813.378906 537.414062 1556.070312 611.015625 1405.828125 C 646.863281 1332.660156 717.394531 1252.820312 865.328125 1268 "/>
<path fill="none" stroke-width="50" stroke-linecap="round" stroke-linejoin="round" stroke="rgb(0%, 0%, 0%)" stroke-opacity="1" stroke-miterlimit="10" d="M 8653.28125 17320 C 7603.007812 16892.304688 7268.515625 16526.40625 6761.210938 15827.890625 C 6028.28125 14818.59375 6763.515625 10966.40625 5821.796875 9669.648438 C 4411.992188 7728.359375 2034.648438 9339.882812 405.585938 10626.40625 C 1948.164062 9922.65625 3167.539062 9136.796875 4587.851562 10044.882812 C 7436.40625 11866.210938 5374.140625 14439.296875 6110.15625 15941.71875 C 6468.632812 16673.398438 7173.945312 17471.796875 8653.28125 17320 Z M 8653.28125 17320 " transform="matrix(0.1, 0, 0, -0.1, 0, 3000)"/>
<path fill-rule="evenodd" fill="rgb(0%, 0%, 0%)" fill-opacity="1" d="M 809.933594 1739.761719 C 856.324219 1843.121094 855.21875 1892.640625 843.609375 1978.148438 C 826.835938 2101.6875 507.273438 2329.640625 485.722656 2488.367188 C 453.457031 2725.992188 736.855469 2773.34375 943.65625 2792.605469 C 783.410156 2737.148438 640.867188 2709.921875 600.925781 2546.304688 C 520.820312 2218.160156 847.921875 2174.226562 898.578125 2014.800781 C 923.246094 1937.160156 927.433594 1830.78125 809.933594 1739.761719 "/>
<path fill="none" stroke-width="50" stroke-linecap="round" stroke-linejoin="round" stroke="rgb(0%, 0%, 0%)" stroke-opacity="1" stroke-miterlimit="10" d="M 8099.335938 12602.382812 C 8563.242188 11568.789062 8552.1875 11073.59375 8436.09375 10218.515625 C 8268.359375 8983.125 5072.734375 6703.59375 4857.226562 5116.328125 C 4534.570312 2740.078125 7368.554688 2266.5625 9436.5625 2073.945312 C 7834.101562 2628.515625 6408.671875 2900.78125 6009.257812 4536.953125 C 5208.203125 7818.398438 8479.21875 8257.734375 8985.78125 9851.992188 C 9232.460938 10628.398438 9274.335938 11692.1875 8099.335938 12602.382812 Z M 8099.335938 12602.382812 " transform="matrix(0.1, 0, 0, -0.1, 0, 3000)"/>
<path fill-rule="evenodd" fill="rgb(0%, 0%, 0%)" fill-opacity="1" d="M 2050.339844 1450.648438 C 2125.371094 1533.628906 2146.710938 1577.109375 2177.46875 1653.71875 C 2221.910156 1764.410156 2123.140625 2014.613281 2180.25 2156.824219 C 2265.730469 2369.726562 2464.300781 2365.984375 2602.398438 2349.886719 C 2477.359375 2326.925781 2375.96875 2325.824219 2278.171875 2189.128906 C 2082.039062 1914.988281 2267.378906 1824.46875 2228.199219 1677.011719 C 2209.121094 1605.199219 2164.421875 1511.519531 2050.339844 1450.648438 "/>
<path fill="none" stroke-width="50" stroke-linecap="round" stroke-linejoin="round" stroke="rgb(0%, 0%, 0%)" stroke-opacity="1" stroke-miterlimit="10" d="M 20503.398438 15493.515625 C 21253.710938 14663.710938 21467.109375 14228.90625 21774.6875 13462.8125 C 22219.101562 12355.898438 21231.40625 9853.867188 21802.5 8431.757812 C 22657.304688 6302.734375 24643.007812 6340.15625 26023.984375 6501.132812 C 24773.59375 6730.742188 23759.6875 6741.757812 22781.71875 8108.710938 C 20820.390625 10850.117188 22673.789062 11755.3125 22281.992188 13229.882812 C 22091.210938 13948.007812 21644.21875 14884.804688 20503.398438 15493.515625 Z M 20503.398438 15493.515625 " transform="matrix(0.1, 0, 0, -0.1, 0, 3000)"/>
<path fill-rule="evenodd" fill="rgb(0%, 0%, 0%)" fill-opacity="1" d="M 1756.410156 1053.921875 C 1659.210938 1206.410156 1626.429688 1245.628906 1578.140625 1285.5 C 1504.390625 1346.390625 1452.25 1374.710938 1322.738281 1424.730469 C 1431.871094 1399.269531 1501.660156 1379.550781 1567.859375 1328.738281 C 1625.851562 1284.238281 1686.71875 1223.890625 1756.410156 1053.921875 "/>
<path fill="none" stroke-width="50" stroke-linecap="round" stroke-linejoin="round" stroke="rgb(0%, 0%, 0%)" stroke-opacity="1" stroke-miterlimit="10" d="M 17564.101562 19460.78125 C 16592.109375 17935.898438 16264.296875 17543.710938 15781.40625 17145 C 15043.90625 16536.09375 14522.5 16252.890625 13227.382812 15752.695312 C 14318.710938 16007.304688 15016.601562 16204.492188 15678.59375 16712.617188 C 16258.515625 17157.617188 16867.1875 17761.09375 17564.101562 19460.78125 Z M 17564.101562 19460.78125 " transform="matrix(0.1, 0, 0, -0.1, 0, 3000)"/>
</svg>
