<?xml version="1.0" encoding="UTF-8"?>
<svg xmlns="http://www.w3.org/2000/svg" xmlns:xlink="http://www.w3.org/1999/xlink" width="2000" height="2000" viewBox="0 0 2000 2000">

<path fill-rule="evenodd" fill="rgb(59.179688%, 83.59375%, 76.171875%)" fill-opacity="1" d="M 1939.179688 1915.15625 L 1920.128906 1915.15625 C 1919.25 1915.15625 1918.53125 1915.871094 1918.53125 1916.746094 L 1918.53125 1935.800781 C 1918.53125 1936.679688 1919.25 1937.394531 1920.128906 1937.394531 L 1939.179688 1937.394531 C 1940.058594 1937.394531 1940.769531 1936.679688 1940.769531 1935.800781 L 1940.769531 1916.746094 C 1940.769531 1915.871094 1940.058594 1915.15625 1939.179688 1915.15625 "/>
<path fill-rule="evenodd" fill="rgb(59.179688%, 83.59375%, 76.171875%)" fill-opacity="1" d="M 1896.230469 1916.171875 L 1878.039062 1916.171875 C 1877.210938 1916.171875 1876.519531 1916.855469 1876.519531 1917.691406 L 1876.519531 1935.875 C 1876.519531 1936.710938 1877.210938 1937.394531 1878.039062 1937.394531 L 1896.230469 1937.394531 C 1897.058594 1937.394531 1897.75 1936.710938 1897.75 1935.875 L 1897.75 1917.691406 C 1897.75 1916.855469 1897.058594 1916.171875 1896.230469 1916.171875 "/>
<path fill-rule="evenodd" fill="rgb(59.179688%, 83.59375%, 76.171875%)" fill-opacity="1" d="M 1853.269531 1917.1875 L 1835.960938 1917.1875 C 1835.160156 1917.1875 1834.511719 1917.839844 1834.511719 1918.636719 L 1834.511719 1935.949219 C 1834.511719 1936.742188 1835.160156 1937.394531 1835.960938 1937.394531 L 1853.269531 1937.394531 C 1854.070312 1937.394531 1854.71875 1936.742188 1854.71875 1935.949219 L 1854.71875 1918.636719 C 1854.71875 1917.839844 1854.070312 1917.1875 1853.269531 1917.1875 "/>
<path fill-rule="evenodd" fill="rgb(59.179688%, 83.59375%, 76.171875%)" fill-opacity="1" d="M 1810.308594 1918.207031 L 1793.871094 1918.207031 C 1793.121094 1918.207031 1792.5 1918.824219 1792.5 1919.582031 L 1792.5 1936.019531 C 1792.5 1936.777344 1793.121094 1937.394531 1793.871094 1937.394531 L 1810.308594 1937.394531 C 1811.070312 1937.394531 1811.691406 1936.777344 1811.691406 1936.019531 L 1811.691406 1919.582031 C 1811.691406 1918.824219 1811.070312 1918.207031 1810.308594 1918.207031 "/>
<path fill-rule="evenodd" fill="rgb(59.179688%, 83.59375%, 76.171875%)" fill-opacity="1" d="M 1767.359375 1919.222656 L 1751.789062 1919.222656 C 1751.070312 1919.222656 1750.488281 1919.808594 1750.488281 1920.523438 L 1750.488281 1936.09375 C 1750.488281 1936.808594 1751.070312 1937.394531 1751.789062 1937.394531 L 1767.359375 1937.394531 C 1768.070312 1937.394531 1768.660156 1936.808594 1768.660156 1936.09375 L 1768.660156 1920.523438 C 1768.660156 1919.808594 1768.070312 1919.222656 1767.359375 1919.222656 "/>
<path fill-rule="evenodd" fill="rgb(59.179688%, 83.59375%, 76.171875%)" fill-opacity="1" d="M 1724.398438 1920.238281 L 1709.699219 1920.238281 C 1709.03125 1920.238281 1708.480469 1920.792969 1708.480469 1921.46875 L 1708.480469 1936.167969 C 1708.480469 1936.84375 1709.03125 1937.394531 1709.699219 1937.394531 L 1724.398438 1937.394531 C 1725.078125 1937.394531 1725.628906 1936.84375 1725.628906 1936.167969 L 1725.628906 1921.46875 C 1725.628906 1920.792969 1725.078125 1920.238281 1724.398438 1920.238281 "/>
<path fill-rule="evenodd" fill="rgb(59.179688%, 83.59375%, 76.171875%)" fill-opacity="1" d="M 1681.449219 1921.257812 L 1667.621094 1921.257812 C 1666.980469 1921.257812 1666.460938 1921.777344 1666.460938 1922.414062 L 1666.460938 1936.238281 C 1666.460938 1936.875 1666.980469 1937.394531 1667.621094 1937.394531 L 1681.449219 1937.394531 C 1682.078125 1937.394531 1682.601562 1936.875 1682.601562 1936.238281 L 1682.601562 1922.414062 C 1682.601562 1921.777344 1682.078125 1921.257812 1681.449219 1921.257812 "/>
<path fill-rule="evenodd" fill="rgb(59.179688%, 83.59375%, 76.171875%)" fill-opacity="1" d="M 1638.488281 1922.273438 L 1625.539062 1922.273438 C 1624.941406 1922.273438 1624.449219 1922.761719 1624.449219 1923.355469 L 1624.449219 1936.3125 C 1624.449219 1936.90625 1624.941406 1937.394531 1625.539062 1937.394531 L 1638.488281 1937.394531 C 1639.089844 1937.394531 1639.570312 1936.90625 1639.570312 1936.3125 L 1639.570312 1923.355469 C 1639.570312 1922.761719 1639.089844 1922.273438 1638.488281 1922.273438 "/>
<path fill-rule="evenodd" fill="rgb(59.179688%, 83.59375%, 76.171875%)" fill-opacity="1" d="M 1595.539062 1923.292969 L 1583.449219 1923.292969 C 1582.898438 1923.292969 1582.441406 1923.746094 1582.441406 1924.300781 L 1582.441406 1936.386719 C 1582.441406 1936.941406 1582.898438 1937.394531 1583.449219 1937.394531 L 1595.539062 1937.394531 C 1596.089844 1937.394531 1596.539062 1936.941406 1596.539062 1936.386719 L 1596.539062 1924.300781 C 1596.539062 1923.746094 1596.089844 1923.292969 1595.539062 1923.292969 "/>
<path fill-rule="evenodd" fill="rgb(99.609375%, 99.609375%, 99.609375%)" fill-opacity="1" d="M 1405.789062 389.429688 C 1412.761719 386.578125 1419.949219 384.109375 1427.351562 382.058594 C 1429.699219 381.339844 1432.078125 380.691406 1434.5 380.121094 C 1458.089844 374.519531 1482.429688 373.570312 1505.941406 376.960938 C 1531.101562 380.589844 1555.039062 389.039062 1576.070312 401.980469 L 1575.988281 402.109375 C 1576.171875 402.21875 1576.351562 402.320312 1576.53125 402.429688 C 1659.898438 454.378906 1682.050781 563.160156 1622.421875 643.621094 C 1620.03125 646.839844 1617.519531 649.988281 1614.890625 653.070312 C 1617.011719 656.660156 1619 660.308594 1620.839844 664 C 1691.199219 805.148438 1551.128906 946.25 1403.671875 895.800781 C 1399.589844 894.621094 1395.53125 893.210938 1391.519531 891.558594 C 1387.808594 906.28125 1383.160156 919.769531 1377.859375 931.671875 C 1367.75 954.410156 1353.878906 974.46875 1337.878906 989.988281 C 1336.570312 994.320312 1335.25 998.519531 1333.941406 1002.582031 C 1317.46875 1053.46875 1296.589844 1084.375 1261.378906 1124.054688 C 1320.269531 1152.417969 1364.648438 1176.285156 1398.429688 1196.171875 C 1456.941406 1230.617188 1486.558594 1254.898438 1504.070312 1270.382812 C 1557.621094 1317.769531 1746.648438 1773.179688 1518.589844 1773.179688 L 459.328125 1773.179688 L 459.328125 1772.902344 C 451.5 1772.894531 443.558594 1772.097656 435.59375 1770.441406 C 401.347656 1763.316406 372.414062 1741.421875 356.171875 1710.597656 C 354.867188 1708.121094 353.648438 1705.59375 352.523438 1703.027344 C 310.667969 1607.53125 430.984375 1308.324219 473.859375 1270.382812 C 491.375 1254.882812 521.738281 1230.191406 580.773438 1195.46875 C 614.496094 1175.636719 658.527344 1151.933594 716.441406 1123.949219 C 681.878906 1084.96875 660.410156 1053.574219 644.175781 1003.613281 C 643.59375 1001.824219 643.003906 999.96875 642.410156 998.058594 C 641.722656 997.449219 641.035156 996.828125 640.351562 996.210938 C 571.296875 932.949219 550.472656 793.960938 611.632812 720.25 C 611.75 719.109375 611.871094 717.980469 612 716.851562 C 612.113281 715.839844 612.230469 714.820312 612.351562 713.800781 C 590.113281 620.550781 546.65625 431.761719 794.671875 304.519531 C 815.492188 293.890625 838.015625 290.121094 859.65625 292.398438 C 883.777344 278.890625 908.460938 267.851562 939.894531 263.441406 C 953.488281 261.558594 966.855469 262.109375 979.566406 264.75 C 1007.828125 251.5 1036.75 242.078125 1072.558594 241.109375 C 1082.011719 240.890625 1091.230469 241.808594 1100.078125 243.730469 C 1117.550781 236.910156 1135.308594 231.589844 1156.429688 228.289062 C 1181.738281 224.371094 1206.410156 228.929688 1227.558594 239.851562 L 1227.640625 239.699219 C 1229.628906 240.738281 1231.578125 241.789062 1233.488281 242.851562 C 1251.25 238.269531 1269.648438 236.558594 1291.878906 239.378906 C 1296.53125 239.96875 1301.070312 240.828125 1305.511719 241.929688 L 1305.578125 241.660156 C 1394.910156 264.019531 1421.5 316.078125 1405.789062 389.429688 "/>
<path fill="none" stroke-width="245.398" stroke-linecap="round" stroke-linejoin="round" stroke="rgb(44.700623%, 50.584412%, 49.804688%)" stroke-opacity="1" stroke-dasharray="490.797 736.195" stroke-miterlimit="2.61313" d="M 14057.890625 16105.703125 C 14127.617188 16134.21875 14199.492188 16158.90625 14273.515625 16179.414062 C 14296.992188 16186.601562 14320.78125 16193.085938 14345 16198.789062 C 14580.898438 16254.804688 14824.296875 16264.296875 15059.414062 16230.390625 C 15311.015625 16194.101562 15550.390625 16109.609375 15760.703125 15980.195312 L 15759.882812 15978.90625 C 15761.71875 15977.8125 15763.515625 15976.796875 15765.3125 15975.703125 C 16598.984375 15456.210938 16820.507812 14368.398438 16224.21875 13563.789062 C 16200.3125 13531.601562 16175.195312 13500.117188 16148.90625 13469.296875 C 16170.117188 13433.398438 16190 13396.914062 16208.398438 13360 C 16911.992188 11948.515625 15511.289062 10537.5 14036.71875 11041.992188 C 13995.898438 11053.789062 13955.3125 11067.890625 13915.195312 11084.414062 C 13878.085938 10937.1875 13831.601562 10802.304688 13778.59375 10683.28125 C 13677.5 10455.898438 13538.789062 10255.3125 13378.789062 10100.117188 C 13365.703125 10056.796875 13352.5 10014.804688 13339.414062 9974.179688 C 13174.6875 9465.3125 12965.898438 9156.25 12613.789062 8759.453125 C 13202.695312 8475.820312 13646.484375 8237.148438 13984.296875 8038.28125 C 14569.414062 7693.828125 14865.585938 7451.015625 15040.703125 7296.171875 C 15576.210938 6822.304688 17466.484375 2268.203125 15185.898438 2268.203125 L 4593.28125 2268.203125 L 4593.28125 2270.976562 C 4515 2271.054688 4435.585938 2279.023438 4355.9375 2295.585938 C 4013.476562 2366.835938 3724.140625 2585.78125 3561.71875 2894.023438 C 3548.671875 2918.789062 3536.484375 2944.0625 3525.234375 2969.726562 C 3106.679688 3924.6875 4309.84375 6916.757812 4738.59375 7296.171875 C 4913.75 7451.171875 5217.382812 7698.085938 5807.734375 8045.3125 C 6144.960938 8243.632812 6585.273438 8480.664062 7164.414062 8760.507812 C 6818.789062 9150.3125 6604.101562 9464.257812 6441.757812 9963.867188 C 6435.9375 9981.757812 6430.039062 10000.3125 6424.101562 10019.414062 C 6417.226562 10025.507812 6410.351562 10031.71875 6403.515625 10037.890625 C 5712.96875 10670.507812 5504.726562 12060.390625 6116.328125 12797.5 C 6117.5 12808.90625 6118.710938 12820.195312 6120 12831.484375 C 6121.132812 12841.601562 6122.304688 12851.796875 6123.515625 12861.992188 C 5901.132812 13794.492188 5466.5625 15682.382812 7946.71875 16954.804688 C 8154.921875 17061.09375 8380.15625 17098.789062 8596.5625 17076.015625 C 8837.773438 17211.09375 9084.609375 17321.484375 9398.945312 17365.585938 C 9534.882812 17384.414062 9668.554688 17378.90625 9795.664062 17352.5 C 10078.28125 17485 10367.5 17579.21875 10725.585938 17588.90625 C 10820.117188 17591.09375 10912.304688 17581.914062 11000.78125 17562.695312 C 11175.507812 17630.898438 11353.085938 17684.101562 11564.296875 17717.109375 C 11817.382812 17756.289062 12064.101562 17710.703125 12275.585938 17601.484375 L 12276.40625 17603.007812 C 12296.289062 17592.617188 12315.78125 17582.109375 12334.882812 17571.484375 C 12512.5 17617.304688 12696.484375 17634.414062 12918.789062 17606.210938 C 12965.3125 17600.3125 13010.703125 17591.71875 13055.117188 17580.703125 L 13055.78125 17583.398438 C 13949.101562 17359.804688 14215 16839.21875 14057.890625 16105.703125 Z M 14057.890625 16105.703125 " transform="matrix(0.1, 0, 0, -0.1, 0, 2000)"/>
<path fill-rule="evenodd" fill="rgb(26.268005%, 26.268005%, 26.268005%)" fill-opacity="1" d="M 883.070312 1173.441406 C 648.976562 1276.070312 578.757812 1330.785156 551.003906 1355.34375 C 508.226562 1393.199219 484.566406 1534.296875 459.328125 1654.097656 L 1518.589844 1654.097656 C 1493.359375 1534.296875 1469.699219 1393.191406 1426.921875 1355.34375 C 1399.160156 1330.785156 1331.511719 1277.476562 1097.421875 1174.847656 L 883.070312 1173.441406 "/>
<path fill-rule="evenodd" fill="rgb(94.139099%, 79.296875%, 68.943787%)" fill-opacity="1" d="M 1102.621094 1104.949219 L 1102.621094 1228.359375 C 1070.828125 1268.304688 1029.230469 1292.640625 988.96875 1294.53125 C 946.039062 1296.554688 904.515625 1273.460938 875.296875 1228.359375 L 875.296875 1104.953125 C 837.238281 1082.078125 801.269531 1047.324219 769.585938 1000.648438 C 763.53125 991.738281 750.855469 957.738281 740.601562 911.441406 C 739.628906 912.210938 738.601562 912.839844 737.523438 913.328125 C 722.921875 919.921875 704.332031 897.210938 696.015625 862.578125 C 687.695312 827.960938 692.796875 794.550781 707.40625 787.949219 C 713.09375 785.378906 719.386719 787.269531 725.445312 792.570312 C 724.289062 751.488281 727.800781 708.960938 739.21875 669.550781 C 740.203125 673.019531 741.066406 676.171875 741.699219 678.898438 C 801.4375 550.800781 868.414062 678.71875 990.378906 666.921875 C 1046.078125 665.71875 1147.769531 582.050781 1235.859375 680.398438 C 1236.609375 675.339844 1237.171875 670.449219 1237.558594 665.71875 C 1249.351562 704.449219 1253.320312 746.371094 1252.589844 787.058594 C 1257.710938 783.578125 1262.898438 782.609375 1267.660156 784.761719 C 1282.269531 791.351562 1287.371094 824.769531 1279.050781 859.390625 C 1270.75 893.949219 1252.199219 916.660156 1237.609375 910.160156 C 1227.300781 957.121094 1214.441406 991.648438 1208.339844 1000.648438 C 1176.648438 1047.320312 1140.679688 1082.070312 1102.621094 1104.949219 Z M 1498.570312 1557.113281 C 1501.699219 1572.425781 1515.449219 1639.199219 1518.589844 1654.097656 L 1303.578125 1654.097656 C 1304.089844 1638.167969 1304.558594 1623.039062 1305.140625 1608.671875 Z M 482.179688 1543.855469 C 479.050781 1559.167969 462.472656 1639.199219 459.328125 1654.097656 L 674.335938 1654.097656 C 673.828125 1638.167969 673.367188 1623.039062 672.785156 1608.671875 L 482.179688 1543.855469 "/>
<path fill-rule="evenodd" fill="rgb(26.268005%, 26.268005%, 26.268005%)" fill-opacity="1" d="M 730.769531 705.910156 C 721.410156 654.25 660.136719 502.101562 847.621094 405.921875 C 866.300781 410.640625 802.777344 447.570312 821.644531 440.511719 C 875.070312 424.78125 918.195312 381.988281 955.871094 376.699219 C 972.945312 385.699219 906.121094 425.128906 938.773438 414.390625 C 994.015625 389.710938 1035.921875 356.351562 1075.289062 355.289062 C 1089.25 374.28125 987.859375 414.199219 1004.449219 408.621094 C 1091.558594 379.28125 1132 347.710938 1174.230469 341.089844 C 1209.238281 359.261719 1046.988281 424.851562 1137.121094 400.949219 C 1210.488281 381.511719 1252.601562 349.519531 1277.28125 352.640625 C 1311.308594 361.160156 1276 388.03125 1241.078125 418 C 1244.039062 413.929688 1244.039062 411.371094 1239.328125 410.898438 C 1216.46875 408.628906 1183.421875 464.539062 1115.460938 478.671875 C 1031.960938 496.039062 1168.128906 420.710938 1145.300781 423.511719 C 1106.171875 428.308594 1082.308594 457.089844 1001.609375 478.410156 C 986.246094 482.46875 1060.210938 424.160156 1049.460938 424.621094 C 1012.980469 425.390625 980.9375 465.308594 929.761719 483.25 C 899.515625 491.058594 942.964844 441.140625 933.148438 443.78125 C 898.242188 447.621094 881.761719 484.96875 832.265625 496.410156 C 814.785156 501.539062 871.4375 457.160156 855.035156 459.609375 C 681.347656 529.511719 733.027344 641.359375 741.699219 678.898438 C 750.511719 660.011719 759.484375 646.71875 768.761719 637.691406 C 754.390625 654.140625 741.609375 676.28125 730.769531 705.910156 Z M 1207.738281 449.75 C 1197.039062 462.109375 1190.441406 474.109375 1192.671875 484.710938 C 1203.558594 536.359375 1265.109375 557.039062 1247.730469 707.96875 C 1244.25 697.710938 1239.859375 688.089844 1234.699219 679.140625 C 1235.089844 679.558594 1235.480469 679.96875 1235.859375 680.398438 C 1251.960938 570.710938 1182.980469 541.699219 1172.890625 504.160156 C 1168.730469 488.671875 1188.238281 467.808594 1207.738281 449.75 "/>
<path fill-rule="evenodd" fill="rgb(92.1875%, 74.414062%, 35.693359%)" fill-opacity="1" d="M 741.699219 678.898438 C 733.027344 641.359375 681.347656 529.511719 855.035156 459.609375 C 871.4375 457.160156 814.785156 501.539062 832.265625 496.410156 C 881.761719 484.96875 898.242188 447.621094 933.148438 443.78125 C 942.964844 441.140625 899.515625 491.058594 929.761719 483.25 C 980.9375 465.308594 1012.980469 425.390625 1049.460938 424.621094 C 1060.210938 424.160156 986.246094 482.46875 1001.609375 478.410156 C 1082.308594 457.089844 1106.171875 428.308594 1145.300781 423.511719 C 1168.128906 420.710938 1031.960938 496.039062 1115.460938 478.671875 C 1183.421875 464.539062 1216.46875 408.628906 1239.328125 410.898438 C 1263.488281 413.300781 1163.988281 471.011719 1172.890625 504.160156 C 1182.980469 541.699219 1251.960938 570.710938 1235.859375 680.398438 C 1147.769531 582.050781 1046.078125 665.71875 990.378906 666.921875 C 868.414062 678.71875 801.4375 550.800781 741.699219 678.898438 "/>
<path fill-rule="nonzero" fill="rgb(58.006287%, 55.271912%, 96.484375%)" fill-opacity="1" d="M 1504.519531 515.890625 C 1512.269531 520.769531 1517.390625 527.480469 1519.148438 535.371094 C 1523.691406 554.808594 1507.25 575.328125 1482.398438 581.210938 C 1457.550781 587 1433.570312 575.960938 1429.019531 556.519531 C 1424.390625 537.039062 1440.949219 516.429688 1465.789062 510.640625 C 1479.75 507.359375 1493.878906 509.261719 1504.519531 515.890625 Z M 1443.578125 763.289062 C 1420.128906 753.269531 1407.53125 730.070312 1415.371094 711.710938 C 1423.238281 693.351562 1448.789062 686.660156 1472.25 696.691406 C 1495.691406 706.828125 1508.398438 729.910156 1500.429688 748.261719 C 1497.320312 755.71875 1491.109375 761.429688 1482.628906 764.871094 C 1471 769.558594 1456.75 768.96875 1443.578125 763.289062 Z M 1301.410156 598.789062 C 1284.71875 590.199219 1204.398438 547.851562 1147.378906 526.46875 C 1082.558594 502.148438 1071.679688 504.960938 1070.511719 510.78125 L 1250.488281 619.011719 L 1054.378906 694.191406 C 1054.519531 700.121094 1064.75 704.800781 1132.820312 692.148438 C 1192.691406 681.050781 1279.171875 653.351562 1297.101562 647.808594 C 1297.390625 647.71875 1297.671875 647.628906 1297.960938 647.539062 C 1346.261719 675.390625 1350.339844 665.671875 1368.660156 692.339844 C 1380.300781 709.28125 1390.660156 733.339844 1398.609375 745.660156 C 1405.269531 760.558594 1418.320312 773.769531 1435.839844 781.320312 C 1453.800781 788.941406 1473.449219 789.589844 1489.960938 783.070312 C 1503.121094 777.789062 1513.230469 768.109375 1518.480469 755.988281 C 1530.558594 727.75 1512.300781 695.261719 1479.96875 678.75 C 1459.238281 668.21875 1399.710938 668.25 1379.390625 660.871094 C 1365.738281 655.929688 1349.460938 640.441406 1335.589844 626.5 C 1351.679688 615.199219 1370.421875 602.769531 1384.710938 600.300781 C 1406.121094 596.578125 1464.621094 606.988281 1486.878906 600.238281 C 1521.589844 589.621094 1545.351562 560.808594 1538.269531 530.898438 C 1535.328125 518.050781 1526.949219 506.761719 1514.910156 499.261719 C 1499.789062 489.96875 1480.339844 487.070312 1461.441406 491.550781 C 1442.75 495.921875 1427.601562 506.550781 1418.441406 520.070312 C 1408.460938 530.800781 1394.058594 552.78125 1379.640625 567.441406 C 1357.058594 590.5 1354.628906 580.21875 1302.210938 599.210938 C 1301.941406 599.070312 1301.679688 598.929688 1301.410156 598.789062 "/>
<path fill-rule="evenodd" fill="rgb(37.646484%, 37.646484%, 38.426208%)" fill-opacity="1" d="M 883.070312 1173.441406 C 648.976562 1276.070312 578.757812 1330.785156 551.003906 1355.34375 C 508.226562 1393.199219 484.566406 1534.296875 459.328125 1654.097656 L 955.871094 1654.097656 L 955.871094 1173.917969 L 883.070312 1173.441406 "/>
<path fill-rule="evenodd" fill="rgb(94.921875%, 87.5%, 82.03125%)" fill-opacity="1" d="M 955.871094 1291.046875 C 925.226562 1283.011719 896.898438 1261.699219 875.296875 1228.359375 L 875.296875 1104.953125 C 837.238281 1082.078125 801.269531 1047.324219 769.585938 1000.648438 C 763.53125 991.738281 750.855469 957.738281 740.601562 911.441406 C 739.628906 912.210938 738.601562 912.839844 737.523438 913.328125 C 722.921875 919.921875 704.332031 897.210938 696.015625 862.578125 C 687.699219 827.960938 692.796875 794.550781 707.40625 787.949219 C 713.09375 785.390625 719.386719 787.269531 725.445312 792.570312 C 724.289062 751.488281 727.800781 708.960938 739.21875 669.550781 C 740.203125 673.019531 741.066406 676.171875 741.699219 678.898438 C 795.550781 563.429688 855.285156 655.96875 955.871094 666.699219 Z M 482.179688 1543.855469 C 479.050781 1559.167969 462.472656 1639.199219 459.328125 1654.097656 L 674.335938 1654.097656 C 673.828125 1638.167969 673.367188 1623.039062 672.785156 1608.671875 L 482.179688 1543.855469 "/>
<path fill-rule="evenodd" fill="rgb(37.646484%, 37.646484%, 38.426208%)" fill-opacity="1" d="M 730.769531 705.910156 C 721.410156 654.25 660.136719 502.101562 847.621094 405.921875 C 866.300781 410.640625 802.777344 447.570312 821.644531 440.511719 C 875.070312 424.78125 918.195312 381.988281 955.871094 376.699219 L 955.871094 387.808594 C 945.878906 402.199219 914.234375 422.460938 938.773438 414.390625 C 944.617188 411.769531 950.3125 409.058594 955.871094 406.308594 L 955.871094 471.679688 C 947.703125 476.011719 939.050781 479.988281 929.761719 483.25 C 899.515625 491.058594 942.964844 441.140625 933.148438 443.78125 C 898.242188 447.621094 881.761719 484.96875 832.265625 496.410156 C 814.785156 501.539062 871.4375 457.160156 855.035156 459.609375 C 681.347656 529.511719 733.027344 641.359375 741.699219 678.898438 C 750.511719 660.011719 759.484375 646.71875 768.761719 637.691406 C 754.390625 654.140625 741.609375 676.28125 730.769531 705.910156 "/>
<path fill-rule="evenodd" fill="rgb(92.96875%, 79.296875%, 47.851562%)" fill-opacity="1" d="M 741.699219 678.898438 C 733.027344 641.359375 681.347656 529.511719 855.035156 459.609375 C 871.4375 457.160156 814.785156 501.539062 832.265625 496.410156 C 881.761719 484.96875 898.242188 447.621094 933.148438 443.78125 C 942.964844 441.140625 899.515625 491.058594 929.761719 483.25 C 939.050781 479.988281 947.703125 476.011719 955.871094 471.679688 L 955.871094 666.699219 C 855.285156 655.96875 795.550781 563.429688 741.699219 678.898438 "/>
</svg>
