<?xml version="1.0" encoding="UTF-8"?>
<svg xmlns="http://www.w3.org/2000/svg" xmlns:xlink="http://www.w3.org/1999/xlink" width="2100" height="2100" viewBox="0 0 2100 2100">
<rect x="-210" y="-210" width="2520" height="2520" fill="rgb(100%, 100%, 100%)" fill-opacity="1"/>
<path fill-rule="evenodd" fill="rgb(99.21875%, 96.875%, 96.875%)" fill-opacity="1" d="M 841.441406 1119.21875 C 843.992188 1122.601562 839.65625 1130.183594 831.761719 1136.140625 C 823.867188 1142.097656 815.386719 1144.191406 812.835938 1140.808594 C 810.28125 1137.429688 814.617188 1129.84375 822.515625 1123.886719 C 830.410156 1117.929688 838.890625 1115.835938 841.441406 1119.21875 "/>
<path fill-rule="evenodd" fill="rgb(0%, 0%, 0%)" fill-opacity="1" d="M 1555.359375 709.339844 C 1551.75 704.289062 1547.789062 701.078125 1544.089844 698.980469 C 1533.46875 692.929688 1523.921875 695.609375 1523.921875 695.609375 C 1523.199219 695.78125 1522.5 696.039062 1521.828125 696.359375 L 1366.179688 771.398438 C 1364.628906 769.53125 1362.898438 767.640625 1360.96875 765.730469 C 1317.210938 722.410156 1262.851562 723.421875 1262.851562 723.421875 C 1262.480469 723.421875 1262.109375 723.449219 1261.738281 723.488281 C 1236.019531 726.609375 1209.941406 731.269531 1183.769531 737.191406 C 1183.210938 737.230469 1182.921875 737.25 1182.921875 737.25 C 1181.589844 737.359375 1180.339844 737.699219 1179.191406 738.238281 C 955.148438 790.109375 725.347656 932.371094 653.988281 981.390625 C 574.109375 1036.269531 358.160156 1233.535156 358.160156 1233.535156 C 354.207031 1237.148438 353.179688 1243.175781 355.695312 1248.007812 C 358.875 1254.113281 362.347656 1260.394531 366.0625 1266.8125 L 279.515625 1290.660156 C 276.003906 1291.628906 273.160156 1294.339844 271.898438 1297.925781 C 270.640625 1301.511719 271.117188 1305.515625 273.1875 1308.660156 L 288.875 1332.515625 C 288.949219 1332.632812 289.027344 1332.75 289.105469 1332.863281 L 426.890625 1542.371094 C 428.183594 1544.335938 430.019531 1545.839844 432.148438 1546.675781 C 432.148438 1546.675781 488.9375 1568.679688 530.550781 1560.460938 C 532.671875 1560.042969 534.632812 1558.980469 536.195312 1557.410156 L 555.222656 1538.238281 L 605.636719 1532.109375 L 631.582031 1567.203125 C 631.6875 1567.351562 631.800781 1567.492188 631.914062 1567.632812 C 631.914062 1567.632812 643.640625 1582.339844 663.707031 1582.425781 C 675.574219 1582.476562 691.039062 1577.53125 708.484375 1558.609375 C 731.554688 1533.585938 742.183594 1503.769531 759.710938 1480.046875 C 776.09375 1457.878906 829.238281 1394.386719 849.878906 1378.34375 C 851.308594 1377.515625 852.832031 1376.304688 854.050781 1374.683594 C 854.671875 1373.867188 855.179688 1372.976562 855.566406 1372.039062 C 856.085938 1370.789062 856.382812 1369.480469 856.46875 1368.167969 L 856.46875 1368.140625 L 856.472656 1368.105469 C 856.605469 1365.921875 856.160156 1363.675781 855.085938 1361.652344 C 854.921875 1361.34375 854.746094 1361.046875 854.558594 1360.753906 L 828.527344 1319.160156 C 888.042969 1282.617188 965.640625 1235.503906 965.640625 1235.503906 C 965.976562 1235.296875 966.304688 1235.074219 966.621094 1234.832031 L 1217.730469 1042.800781 C 1222.800781 1039.570312 1226.570312 1036.320312 1228.171875 1034.859375 C 1236.199219 1029.449219 1308.929688 980.421875 1320.691406 972.488281 C 1324.800781 969.71875 1330.070312 965.511719 1335.289062 960.238281 C 1376.621094 928.5 1391.769531 907.179688 1397.109375 892.308594 C 1401.019531 881.421875 1400.421875 873.128906 1399.230469 866.078125 C 1398.75 863.171875 1398.011719 860.621094 1397.980469 858.148438 C 1397.980469 857.660156 1397.949219 857.128906 1397.910156 856.578125 C 1397.898438 855.859375 1397.820312 855.148438 1397.679688 854.449219 C 1397.609375 853.890625 1397.519531 853.300781 1397.421875 852.699219 L 1544.820312 765.808594 C 1548.621094 764.019531 1559.441406 757.949219 1563.179688 745.390625 C 1564.390625 741.328125 1564.949219 736.539062 1564.160156 730.949219 C 1583.160156 720.351562 1645.851562 685.359375 1675.910156 668.011719 C 1712.371094 646.960938 1779.539062 599.339844 1826.421875 536.519531 C 1830.210938 531.441406 1829.371094 524.070312 1824.539062 520.070312 C 1819.710938 516.078125 1812.710938 516.96875 1808.921875 522.050781 C 1764.171875 582.011719 1700.011719 627.378906 1665.210938 647.46875 C 1636.03125 664.308594 1576.03125 697.820312 1555.359375 709.339844 Z M 824.617188 1355.496094 L 809.511719 1331.355469 C 795.84375 1341.175781 768.503906 1363.328125 744.75 1397.992188 C 710.222656 1448.382812 696.898438 1470.511719 696.898438 1470.511719 C 694.804688 1473.984375 691.136719 1476.050781 687.230469 1475.953125 C 683.320312 1475.851562 679.75 1473.605469 677.820312 1470.027344 L 660.285156 1437.539062 C 651.664062 1435.59375 630.550781 1433.132812 615.613281 1450.597656 C 599.699219 1469.203125 602.285156 1486.34375 603.351562 1490.871094 C 603.351562 1490.871094 635.394531 1534.214844 645.734375 1548.199219 C 645.003906 1545.371094 644.9375 1542.160156 645.734375 1538.632812 C 647.292969 1531.75 653.328125 1522.234375 662.929688 1514.605469 C 672.527344 1506.980469 682.878906 1503.484375 689.59375 1503.792969 C 695.585938 1504.070312 699.984375 1506.746094 702.753906 1510.609375 C 705.523438 1514.46875 706.761719 1519.65625 705.371094 1525.800781 C 705.328125 1525.988281 705.28125 1526.179688 705.230469 1526.375 C 719.535156 1505.921875 728.675781 1483.894531 742.144531 1465.664062 C 746.683594 1459.519531 753.929688 1450.382812 762.539062 1439.945312 C 744.667969 1458.859375 703.144531 1506.796875 698.070312 1503.152344 C 692.996094 1499.511719 772.832031 1396.808594 798.042969 1372.566406 C 808.285156 1362.71875 817.273438 1357.820312 824.617188 1355.496094 Z M 537.171875 1523.992188 L 531.101562 1507.472656 L 504.289062 1514.921875 L 495.40625 1523.921875 C 494.046875 1525.296875 492.378906 1526.285156 490.558594 1526.800781 L 471.175781 1532.25 C 465.242188 1533.917969 459.136719 1530.203125 457.550781 1523.957031 C 456.082031 1518.171875 459.007812 1512.230469 464.164062 1510.0625 L 437.511719 1517.359375 L 443.15625 1525.941406 C 454.371094 1530.011719 492.679688 1542.679688 523.28125 1537.988281 Z M 591.644531 1444.882812 C 562.269531 1466.136719 543.421875 1479.769531 540.289062 1482.035156 C 543.824219 1482.859375 546.882812 1485.480469 548.269531 1489.25 L 557.503906 1514.378906 L 589.640625 1510.472656 L 584.558594 1503.597656 C 583.925781 1502.738281 583.40625 1501.792969 583.019531 1500.78125 C 583.019531 1500.78125 572.359375 1474.957031 591.644531 1444.882812 Z M 300.535156 1309.085938 L 302.867188 1312.632812 L 340.011719 1302.460938 C 340.925781 1302.21875 341.851562 1302.089844 342.789062 1302.082031 L 342.929688 1302.082031 C 347.828125 1302.132812 352.289062 1305.617188 353.585938 1310.847656 C 355.128906 1317.105469 351.558594 1323.503906 345.613281 1325.132812 L 316.355469 1333.144531 L 320.175781 1338.945312 L 357.941406 1328.605469 C 363.882812 1326.980469 369.964844 1330.738281 371.511719 1336.996094 C 373.054688 1343.25 369.484375 1349.652344 363.542969 1351.277344 L 333.664062 1359.460938 L 337.480469 1365.261719 L 375.867188 1354.753906 C 381.8125 1353.128906 387.890625 1356.886719 389.4375 1363.140625 C 390.984375 1369.398438 387.414062 1375.800781 381.46875 1377.425781 L 350.972656 1385.777344 L 354.789062 1391.578125 L 393.792969 1380.902344 C 399.738281 1379.273438 405.816406 1383.03125 407.363281 1389.289062 C 408.910156 1395.546875 405.339844 1401.945312 399.394531 1403.574219 L 368.277344 1412.09375 L 372.097656 1417.894531 L 411.71875 1407.046875 C 417.664062 1405.421875 423.746094 1409.179688 425.289062 1415.433594 C 426.835938 1421.691406 423.265625 1428.09375 417.324219 1429.71875 L 385.585938 1438.40625 L 389.402344 1444.210938 L 429.648438 1433.195312 C 435.589844 1431.566406 441.671875 1435.324219 443.21875 1441.582031 C 444.765625 1447.839844 441.191406 1454.238281 435.25 1455.867188 L 402.894531 1464.722656 L 406.710938 1470.527344 L 447.574219 1459.339844 C 453.519531 1457.714844 459.597656 1461.472656 461.144531 1467.730469 C 462.691406 1473.984375 459.121094 1480.386719 453.175781 1482.011719 L 420.203125 1491.039062 L 424.019531 1496.84375 L 465.5 1485.488281 C 471.445312 1483.859375 477.527344 1487.617188 479.070312 1493.875 C 480.46875 1499.523438 477.691406 1505.289062 472.769531 1507.554688 L 482.039062 1504.945312 L 490.9375 1495.929688 C 492.304688 1494.546875 493.980469 1493.554688 495.816406 1493.046875 L 529.574219 1483.671875 C 528.785156 1483.355469 528.023438 1482.945312 527.304688 1482.433594 L 527.242188 1482.390625 L 527.210938 1482.367188 L 527.183594 1482.347656 L 527.148438 1482.320312 L 527.128906 1482.308594 L 527.117188 1482.296875 C 526.433594 1481.789062 525.792969 1481.195312 525.21875 1480.515625 C 521.613281 1476.378906 433.703125 1375.179688 378.617188 1287.566406 Z M 1302.710938 755.109375 C 1304.421875 756.609375 1305.921875 758.191406 1307.160156 759.851562 C 1318.148438 774.621094 1315.371094 791.289062 1303.929688 807.191406 C 1284.039062 834.839844 1235.460938 860.210938 1235.460938 860.210938 C 1235.328125 860.289062 1235.191406 860.351562 1235.050781 860.421875 C 1235.050781 860.421875 1039.398438 950.929688 1008.21875 965.398438 C 983.21875 977 935.558594 991.980469 894.851562 993.660156 C 864.636719 994.910156 838.261719 988.160156 824.699219 970.691406 C 813.050781 955.679688 816.867188 934.679688 831.769531 913.261719 C 836.671875 906.210938 842.726562 899.039062 849.363281 892.011719 C 765.355469 936.109375 698.859375 978.539062 666.152344 1001.011719 C 595.347656 1049.648438 416.824219 1211.136719 379.613281 1244.972656 C 423.078125 1324.179688 510.734375 1428.65625 535.230469 1457.273438 C 603.933594 1407.574219 1092.199219 1054.328125 1152.578125 1009.320312 C 1152.949219 995.949219 1158.210938 967.621094 1192.960938 946.640625 C 1232.519531 922.761719 1307.050781 879.96875 1307.050781 879.96875 C 1307.410156 879.769531 1307.769531 879.578125 1308.148438 879.421875 C 1308.148438 879.421875 1325.800781 872.191406 1339.910156 880.269531 C 1340.160156 880.421875 1340.398438 880.558594 1340.648438 880.710938 C 1355.679688 870.679688 1368.730469 858.609375 1374.988281 852.5 C 1373.621094 845.609375 1370.570312 836.171875 1367.320312 827.171875 C 1365.769531 829.101562 1364.070312 830.980469 1362.230469 832.800781 C 1348.039062 846.878906 1325.539062 857.609375 1313.121094 864.449219 C 1296.628906 873.53125 1101.488281 962.171875 971.273438 1030.308594 C 917.097656 1058.671875 874.296875 1083.011719 861.890625 1096.421875 C 819.355469 1142.363281 587.277344 1404.292969 582.726562 1399.953125 C 578.175781 1395.613281 803.324219 1126.113281 845.949219 1080.070312 C 859.089844 1065.871094 904 1039.359375 961.367188 1009.339844 C 1091.421875 941.269531 1286.328125 852.761719 1302.800781 843.691406 C 1313.910156 837.570312 1334.269531 828.351562 1346.96875 815.75 C 1351.46875 811.28125 1355.121094 806.558594 1355.46875 800.96875 C 1355.828125 795.320312 1352.550781 789.558594 1345.730469 782.800781 C 1331.660156 768.871094 1316.308594 760.339844 1302.710938 755.109375 Z M 722.960938 1389.757812 C 706.863281 1403 692.222656 1416.722656 681.289062 1429.027344 C 684.40625 1434.808594 688.234375 1441.894531 688.234375 1441.894531 C 695.402344 1430.761719 706.671875 1413.621094 722.960938 1389.757812 Z M 1159.859375 1032.570312 C 1095.710938 1079.949219 790.511719 1300.960938 633.550781 1414.558594 C 645.613281 1412.0625 656.75 1413.214844 663.71875 1414.527344 C 685.632812 1389.507812 722.402344 1358.554688 756.984375 1336.378906 C 766.445312 1330.3125 784.523438 1319.097656 806.050781 1305.851562 C 806.84375 1305.351562 807.28125 1305.09375 807.308594 1305.078125 C 865.140625 1269.5 946.839844 1219.875 954.011719 1215.519531 L 1174.199219 1047.140625 C 1169.140625 1044.199219 1164.210938 1039.601562 1159.859375 1032.570312 Z M 1331.269531 902.558594 C 1330.671875 901.839844 1330 901.269531 1329.269531 900.851562 C 1324.628906 898.191406 1319.011719 900.089844 1317.199219 900.828125 C 1310.601562 904.621094 1241.539062 944.320312 1204.039062 966.960938 C 1175.710938 984.058594 1174.730469 1007.359375 1174.878906 1012.441406 C 1178.429688 1021.398438 1182.519531 1026.199219 1187.429688 1027.691406 C 1191.988281 1029.089844 1196.660156 1027.621094 1200.679688 1025.789062 C 1202.339844 1025.039062 1203.898438 1024.191406 1205.339844 1023.320312 L 1214.898438 1016.011719 L 1214.910156 1016 L 1214.929688 1015.988281 L 1214.988281 1015.941406 L 1215.019531 1015.921875 L 1215.03125 1015.910156 L 1215.101562 1015.859375 L 1215.140625 1015.839844 L 1215.230469 1015.769531 C 1215.320312 1015.699219 1215.410156 1015.640625 1215.511719 1015.578125 C 1218.089844 1013.839844 1296.429688 961.03125 1308.679688 952.769531 C 1311.890625 950.601562 1316.058594 947.289062 1320.148438 943.128906 C 1320.378906 942.871094 1320.621094 942.621094 1320.871094 942.390625 C 1323.378906 939.761719 1325.839844 936.820312 1328.011719 933.621094 C 1332.929688 926.378906 1336.628906 917.710938 1334.058594 908.449219 C 1333.371094 905.960938 1332.480469 904.058594 1331.371094 902.679688 L 1331.289062 902.578125 Z M 935.269531 849.570312 C 934.796875 850.03125 934.28125 850.460938 933.722656 850.839844 C 933.722656 850.839844 875.105469 890.628906 849.722656 927.109375 C 845.121094 933.71875 841.628906 940.109375 840.363281 946.089844 C 839.601562 949.699219 839.765625 953.070312 841.933594 955.859375 C 851.867188 968.660156 871.851562 971.171875 893.980469 970.25 C 931.777344 968.691406 976.027344 954.730469 999.238281 943.960938 C 1029.820312 929.769531 1218.558594 842.460938 1225.898438 839.058594 C 1228.730469 837.578125 1258.640625 821.800781 1277.960938 802.539062 C 1282.730469 797.78125 1286.851562 792.839844 1289.441406 787.820312 C 1291.808594 783.210938 1292.800781 778.550781 1289.640625 774.300781 C 1287.800781 771.828125 1284.691406 770.101562 1281 768.488281 C 1275.929688 766.289062 1269.839844 764.671875 1263.261719 763.421875 C 1234.039062 757.859375 1195.808594 759.871094 1186.609375 760.46875 C 1100.609375 780.039062 1013.621094 813.328125 935.269531 849.570312 Z M 1377.03125 881.660156 C 1370.640625 887.191406 1362.921875 893.398438 1354.570312 899.128906 C 1354.871094 900.011719 1355.160156 900.929688 1355.421875 901.890625 C 1356.289062 905.039062 1356.820312 908.160156 1357.039062 911.238281 C 1368 900.039062 1373.679688 891.308594 1376.289062 884.03125 C 1376.578125 883.21875 1376.828125 882.421875 1377.03125 881.660156 Z M 1377.5 791.710938 C 1379.589844 796.960938 1386.101562 813.609375 1391.230469 829.5 L 1534.378906 745.121094 C 1534.949219 744.78125 1535.550781 744.5 1536.171875 744.269531 C 1536.171875 744.269531 1540.628906 742.78125 1541.941406 738.390625 C 1542.601562 736.179688 1542.261719 733.410156 1540.910156 729.890625 C 1537.371094 720.628906 1531.121094 718.878906 1529.210938 718.570312 Z M 1528.910156 718.429688 L 1526.460938 718.71875 C 1527.21875 718.71875 1527.96875 718.640625 1528.710938 718.480469 L 1528.910156 718.429688 "/>
</svg>
