<?xml version="1.0" encoding="utf-8"?>
<!-- Generator: Adobe Illustrator 19.0.0, SVG Export Plug-In . SVG Version: 6.00 Build 0)  -->
<svg version="1.1" xmlns="http://www.w3.org/2000/svg" xmlns:xlink="http://www.w3.org/1999/xlink" x="0px" y="0px"
	 viewBox="0 0 1096 780" style="enable-background:new 0 0 1096 780;" xml:space="preserve">
<style type="text/css">
	.st0{fill:#FFFFFF;}
	.st1{fill:#4E3319;}
	.st2{fill:#452C13;}
	.st3{fill:#6E4B2D;}
	.st4{fill:#3D2710;}
	.st5{fill:#633A15;}
	.st6{fill-rule:evenodd;clip-rule:evenodd;fill:#4E3319;}
	.st7{fill-rule:evenodd;clip-rule:evenodd;fill:#6E4B2D;}
	.st8{fill-rule:evenodd;clip-rule:evenodd;fill:#452C13;}
</style>
<g id="Layer_2">
	<polygon class="st0" points="1095.8,780.3 -0.1,780.3 -0.1,-0.3 1096,-0.3 	"/>
</g>
<g id="Layer_1">
	<g>
		<g>
			<path class="st1" d="M67.1,563.4c-1.9-12.5,3.8-35.3,19.1-39.2c10.1-2.9,19.2-1.5,23.1,7.1c21.8,46.9-18.1,75.9-18.1,96.8
				C78.7,615.6,86.2,575.4,67.1,563.4z"/>
		</g>
		<g>
			<path class="st2" d="M67.1,563.4c-1.9-12.5,3.8-35.3,19.1-39.2c10.1-2.9,19.2-1.5,23.1,7.1c18.9,40.8-8.7,68-16.3,88.1
				c0.9-7.5,2.2-14.9,3.3-22.1c1.1-8.1-8.6-10.9-17.4-14.8C76.8,574.3,73.4,567.3,67.1,563.4z"/>
		</g>
		<g>
			<path class="st1" d="M281.9,563.4c1.9-12.5-3.8-35.3-19.1-39.2c-10.1-2.9-19.1-1.5-23.1,7.1c-21.8,46.9,18.1,75.9,18.1,96.8
				C270.4,615.6,262.9,575.4,281.9,563.4z"/>
		</g>
		<g>
			<g>
				<path class="st3" d="M260.5,529.1c-9.8-2.8-18.7-1.6-22.9,6.3c0.6-1.4,1.2-2.8,1.8-4.2c4-8.6,13.1-10,23.3-7.1
					c15.4,3.9,21.1,26.8,19.2,39.3c-0.7,0.4-1.3,0.9-1.9,1.3C280.5,551.9,274.5,532.7,260.5,529.1z"/>
			</g>
		</g>
		<g>
			<g>
				<path class="st2" d="M239.5,531.3c0.9-1.9,2-3.5,3.4-4.7c-21.4,46.7,18.3,75.6,18.4,96.5c-1,2-2.1,3.8-3.6,5.2
					C257.7,607.3,217.6,578.3,239.5,531.3z"/>
			</g>
		</g>
		<g>
			<g>
				<path class="st1" d="M239.4,535.3c6.9-56.9-153.8-33.8-198.7-8.2c8.6,0,19,0.8,25.9,5.8c-14.7,4.9-30.2,3.3-45.8,1.6
					c19.6,23.8,60.9,56.7,118.3,54C218.9,584.8,239.4,559.2,239.4,535.3z"/>
			</g>
			<g>
				<g>
					<path class="st2" d="M66.7,532.9c-7.5-5.6-20.8-5.8-25.9-5.8c3.4-1.9,22.1-3.5,25.9-0.7C70.3,528.9,69.9,532.3,66.7,532.9z"/>
				</g>
				<g>
					<path class="st2" d="M139.2,582c28.7,0.7,68.6-6.5,83.3-17.4c12.6-9.5,13.6-13.6,13.6-13.6c-8.5,18.4-34.6,34.6-96.9,37.5
						c-57.5,2.7-98.7-30.2-118.3-54C39.5,553.3,87.3,580.7,139.2,582z"/>
				</g>
			</g>
			<g>
				<g>
					<path class="st3" d="M66.7,532.9c1.9,0.7-27.1,11.5-45.8,1.6C34.6,536,49.9,538.2,66.7,532.9z"/>
				</g>
				<g>
					<path class="st3" d="M40.8,527.1c44.6-25.4,203.2-48.4,198.8,7C235.7,487,107.8,503,40.8,527.1z"/>
				</g>
			</g>
		</g>
	</g>
	<g>
		<g>
			<g>
				<path class="st1" d="M272.2,175.5c-6.6-1.2-16.9-2.2-22.7,1.5c-6.4,4.1-21.5,12.5-8.9,42.9c6.1,14.7,11.3,34.9,18.7,72.2
					c4.1-23,6.3-53.8,15.5-72.2c6.3-12.4,3.6-43.6-12-38.3C265,179.3,268.7,175.5,272.2,175.5z"/>
			</g>
			<g>
				<path class="st3" d="M274.8,219.9c5.6-11.1,4.1-37.2-7.4-38.8c20.8,22.9-5.1,50.3-2.7,75c0.1,0.1,0.1,0.3,0.1,0.4
					C267.1,242.9,270,229.6,274.8,219.9z"/>
			</g>
			<g>
				<path class="st2" d="M257.4,174.5c-2.9,0.3-5.7,1-7.8,2.4c-6.4,4.1-21.5,12.5-8.9,42.9c6.1,14.7,11.3,34.9,18.7,72.2
					C261.3,281.2,237.7,197.8,257.4,174.5z"/>
			</g>
		</g>
		<g>
			<path class="st2" d="M110.8,148.8c6.6-1.2,16.9-2.2,22.6,1.5c6.4,4.1,16.9,28.4-11.4,49.8c-22.3,16.8-25.4,54.6-32.8,91.9
				c-4.1-23-9.6-83.3-3.4-100.9c3.5-10.3,18.7-41.6,34.4-36.3C118,152.6,114.3,148.8,110.8,148.8z"/>
		</g>
		<g>
			<g>
				<path class="st1" d="M156,203.6c-10,7.3-18.4,15.5-33.1,22c23.5,1.1,52.7-9.5,73.6-20.1c-7.1,11.4-22.2,17-28,20.7
					c19.1-0.4,60.6-18.4,73.9-29.2c26.7-31.1-13.8-60.4-44.3-69.6c-48-14.6-89.4,10.4-109.2,49.6c-5,10.7-22.2,31.7-36.9,43
					C76.4,225.2,133.4,213.3,156,203.6z"/>
			</g>
			<g>
				<path class="st2" d="M126,224.1c-1,0.5-2.1,1-3.1,1.5c22.8,1.1,50.8-8.8,71.5-19.1c1.8-2.1,3.3-4.7,5.6-5.9
					C176.6,210.7,151.9,219.5,126,224.1z"/>
			</g>
			<g>
				<path class="st3" d="M143.9,133.8c34.2-15.6,69.6,0.5,98.3,20.7c-10.5-12.7-28.6-22.5-44.1-27.2c-48-14.6-89.4,10.4-109.2,49.6
					c-2.8,6-12.2,20.6-36.9,43C91.2,193.6,95.3,156,143.9,133.8z"/>
			</g>
			<g>
				<path class="st2" d="M161.5,195.5C128.3,215,88.9,213,52.1,219.9c23.3,5,76.6-5.7,100.9-15.1C156.2,202.4,159,199.5,161.5,195.5
					z"/>
			</g>
			<g>
				<path class="st2" d="M246.1,159.8c1.1,34.6-37.8,52-72.5,63.5c-2,1.1-3.8,2-5.1,2.8c19.1-0.4,60.6-18.4,73.9-29.2
					C253.7,183.8,253,171,246.1,159.8z"/>
			</g>
		</g>
	</g>
	<g>
		<g>
			<g>
				<g>
					<path class="st1" d="M315.3,292.1c-13-24.7-16.3-62.9-11.7-88.3c2.3-12.1,25.1-55.8,44.3-9.7
						C369.9,240.4,315.3,228.3,315.3,292.1z"/>
				</g>
			</g>
			<g>
				<path class="st3" d="M305.2,205.9c2-10.5,19.6-45.1,36.8-23.2c-17.7-26.1-36.3,10.2-38.4,21.1c-4.6,25.4-1.2,63.6,11.7,88.3
					c0-0.3,0-0.6,0-1C303.7,266.4,300.8,230.3,305.2,205.9z"/>
			</g>
			<g>
				<path class="st2" d="M347.9,194.1c-1.5-3.7-3.1-6.8-4.7-9.4c1,1.9,2,4,3,6.4c10.7,43.6-32.3,34.2-32.6,97.5
					c0.5,1.2,1.1,2.3,1.7,3.4C315.3,228.3,369.9,240.4,347.9,194.1z"/>
			</g>
		</g>
		<g>
			<g>
				<path class="st1" d="M483.9,291.2c0,0,10.9-41.3,16.6-64.2c2.3-10.9,0.5-27.9-10-30.9l-11,5.4c0,0-21.4,12-12.6,20.8
					C475.8,231,479.4,254.6,483.9,291.2z"/>
			</g>
		</g>
		<g>
			<g>
				<path class="st4" d="M501.3,215.2c-0.6-8.6-3.7-17.1-10.8-19.1l-11,5.4c0,0-21.4,12-12.6,20.8c4.1,4,7.1,11.3,9.5,21.5
					C482.6,233,490.8,222.2,501.3,215.2z"/>
			</g>
		</g>
		<g>
			<g>
				<path class="st1" d="M384.4,141.1c-2.5-7.6,6.8-19.2,13.7-24c-31.2,4.2-78.8,31.3-57,76c25.8,63.2,93.6,54,124.1,37.9
					c30.6-16.2,44.9-66.9,88.9-66.9C523.2,107.3,429.9,100,384.4,141.1z"/>
			</g>
			<g>
				<g>
					<path class="st3" d="M384.4,141.1c48.7-36.1,133.5-27.4,167.9,23c0.6,0,1.1,0,1.7,0c-29.8-55-118.2-63.5-165.1-26.7
						L384.4,141.1z"/>
				</g>
				<g>
					<path class="st3" d="M398,117.1c-30.6,4.1-77,30.3-58.2,73.5C330.1,156.6,375.3,123.4,398,117.1z"/>
				</g>
			</g>
			<g>
				<g>
					<path class="st2" d="M379,132.5c-3.5,5.8,1.4,11.2,5.4,8.7c-3.2-9,11-22.1,13.4-23.8C391,121,383.6,125.9,379,132.5z"/>
				</g>
				<g>
					<path class="st2" d="M459.8,222.8c-26.9,14.2-82.9,23-113.4-18.6c28.9,50.8,90.1,41.8,118.6,26.7
						c30.6-16.2,44.9-66.9,88.9-66.9C508.7,153.8,490.4,206.7,459.8,222.8z"/>
				</g>
			</g>
		</g>
	</g>
	<g>
		<g>
			<path class="st1" d="M514.4,507.1c-25.1-34.8-95.6-12.6-96.6,5.7c-4.6-16.6-70.5-40.5-95.6-5.7c-31.6,42.9,4.8,89.6-24.2,127.2
				c21-3.2,42.9-9.7,57.4-25.9c9.9-9.2,18-26.5,25-38.7c-8,14.3-10.2,33.5-19.8,42.3c0,0,14.6-2.7,29.9-34.5
				c2.9-6.1,17.3-32.7,27.7-11.7v0.4c0-0.1,0.1-0.1,0.1-0.2c0,0.1,0.1,0.1,0.1,0.2v-0.4c10.4-21,24.7,5.6,27.7,11.7
				c15.3,31.8,29.9,34.5,29.9,34.5c-9.6-8.8-11.8-28-19.8-42.3c7,12.1,15.1,29.5,25,38.7c14.6,16.2,36.4,22.7,57.4,25.9
				C509.5,596.7,545.9,550,514.4,507.1z"/>
		</g>
		<g>
			<path class="st3" d="M326.1,516.8c24.1-34.8,87.8-16.9,92.2-0.2c1-18.3,68.2-34.5,92.2,0.2c27.2,38.5-9.3,92.3,28,117.5
				c-29-37.6,7.3-84.3-24.2-127.2c-25.1-34.8-95.6-12.6-96.6,5.7c-4.6-16.6-70.5-40.5-95.6-5.7c-31.6,42.9,4.8,89.6-24.2,127.2
				C331.4,607.3,298.9,555.3,326.1,516.8z"/>
		</g>
		<g>
			<path class="st2" d="M380.5,561.1c-7,12.1-15,29.5-25,38.7c-13.2,14.6-55,31.4-57.4,34.6c21-3.2,42.9-9.7,57.4-25.9
				c4.7-4.4,9-10.6,13-17.2C372.4,582,375.2,570.5,380.5,561.1z"/>
		</g>
		<g>
			<path class="st2" d="M467.6,598.7c-5.6-4.5-13.5-13.1-21.6-29.9c-2.9-6.1-17.3-32.7-27.7-11.7v0.3c0-0.1-0.1-0.1-0.1-0.2
				c0,0.1-0.1,0.1-0.1,0.2v-0.4c-10.4-21-24.7,5.6-27.7,11.7c-8.1,16.7-15.9,25.4-21.6,29.9c-2.2,5.4-4.8,10.1-8.3,13.4
				c0,0,14.6-2.7,29.9-34.5c2.9-6.1,17.3-32.7,27.7-11.7v0.4c0-0.1,0.1-0.1,0.1-0.2c0,0.1,0.1,0.1,0.1,0.2v-0.4
				c10.4-21,24.7,5.6,27.7,11.7c15.3,31.8,29.9,34.5,29.9,34.5C472.4,608.9,469.8,604.1,467.6,598.7z"/>
		</g>
		<g>
			<path class="st2" d="M481.1,599.7c-9.9-9.2-18-26.5-25-38.7c5.3,9.4,8,20.9,12,30.2c4,6.6,8.3,12.8,13,17.2
				c14.6,16.2,36.4,22.7,57.4,25.9C536.1,631.2,494.3,614.4,481.1,599.7z"/>
		</g>
	</g>
	<g>
		<path class="st1" d="M811.1,174.4c-2.6-6.5-8.5-13.2-15.1-17.3c-0.2-14.8-10.7-26.9-24.2-28.2c-1.2-22.2-12.1-36.6-36.1-40.1
			c-29.5-4.4-38.9,19.8-38.9,19.8s0.1-24.5-17.9-22.3c-19.4,2.4-21.6,22.3-21.6,22.3s-34.4-22.4-35.6,20.3
			c-13.5,1.3-24,13.4-24.2,28.2c-6.5,4.1-12.5,10.8-15.1,17.3c-8.9,19-3,34.9,8.7,44.5c-0.1,0.8-0.2,1.7-0.2,2.6
			c0,7.7,4.5,14.3,10.8,16.9c-2.6,4.8-3.8,10.7-3,16.1c3.8,17.1,12,9.9,15.5,36.6c4.8-32.4,20.3-40.5,18.5-50.4
			c-0.7-4.8-7.8-13.5-5.2-17.5c8.5,4.4,14.4,3.6,21.3,0c4.8-2.5,8.3-9.5,7.5-15.9c1.1,8.6,13.7,12.3,17.4,3.2
			c3.7,6.4,13.4,10.6,23,11.5l0,0c0,0,0,0,0,0l0,0l0,0c9.7-1,19.3-5.1,23-11.5c3.7,9.1,16.3,5.5,17.4-3.2
			c-0.7,6.4,2.8,13.4,7.5,15.9c6.8,3.6,12.8,4.4,21.3,0c2.6,4,0.5,16.1-0.3,20.9c-1.8,9.9,11,21.1,13.5,47.6
			c3.4-26.6,11.9-20,15.6-37.1c0.8-5.4-0.4-11.3-3-16.1c6.3-2.6,10.8-9.2,10.8-16.9c0-0.9-0.1-1.7-0.2-2.6
			C814,209.2,819.9,193.4,811.1,174.4z"/>
		<path class="st3" d="M739.5,147.7c8.9,3.5,13.5,14.2,10.2,23.8c-0.6,1.7-1.4,3.3-2.4,4.7c2-2,3.7-4.5,4.7-7.4
			c3.3-9.6-1.3-20.2-10.2-23.8c-7.3-2.9-15.3-0.1-19.8,6.3C726.6,146.9,733.3,145.3,739.5,147.7z"/>
		<path class="st3" d="M760.7,163.6c4.7,1.9,7.5,6.6,6.1,10.6c-0.2,0.7-0.6,1.4-1.1,1.9c1-0.8,1.7-1.8,2.2-3c1.4-4-1.4-8.8-6.1-10.6
			c-3.9-1.5-7.9-0.6-10,1.9C754.1,162.8,757.4,162.3,760.7,163.6z"/>
		<path class="st3" d="M649.9,152.6c-7.1,0.7-14.5,6.2-16.5,12.3c-0.4,1.1-0.5,2.1-0.5,3.1c-0.5-1.5-0.4-3.2,0.2-5.1
			c2-6.1,9.4-11.6,16.6-12.3c5.8-0.5,9.7,2.3,9.8,6.8C658.4,154.1,654.9,152.1,649.9,152.6z"/>
		<g>
			<path class="st3" d="M582.3,179.1c2.6-6.5,14.6-10.4,21.1-14.5c0.2-14.8,7.7-20.2,21.2-21.5c1.1-42.7,38.6-29.1,38.6-29.1
				s-3.9-20.6,15.5-23c18-2.2,17.9,31.4,17.9,31.4s9.4-33.3,38.9-28.9c24,3.5,32.7,15.4,33.9,37.6c13.5,1.3,16.3,20.2,16.5,35
				c9-3.4,22.5,6.5,25.1,13c2.5,5.5,3.9,10.7,4.2,15.6c0.4-6.2-0.8-13-4.2-20.3c-2.6-6.5-8.5-13.2-15.1-17.3
				c-0.2-14.8-10.7-26.9-24.2-28.2c-1.2-22.2-12.1-36.6-36.1-40.1c-29.5-4.4-38.9,19.8-38.9,19.8s0.1-24.5-17.9-22.3
				c-19.4,2.4-21.6,22.3-21.6,22.3s-34.4-22.4-35.6,20.3c-13.5,1.3-24,13.4-24.2,28.2c-6.5,4.1-12.5,10.8-15.1,17.3
				c-3.4,7.3-4.6,14.1-4.2,20.3C578.4,189.8,579.8,184.5,582.3,179.1z"/>
			<path class="st2" d="M766.1,223.4c0.5-1.8,0.6-3.4-0.2-4.5c-8.5,4.4-11.1-0.4-17.9-4c-4.8-2.5-7.3-13.9-6.6-20.2
				c-1.1,8.6-19.7,19-23.4,9.9c-3.7,6.4-11.7,12.2-21.3,13.1l0,0c-9.7-1-17.3-9.1-21-15.6c-3.7,9.1-19.4,5.1-24-0.9
				c3.8,4.9-0.4,11.2-5.2,13.7c-6.8,3.6-10.6,8.3-19.1,4c-0.8,1.2-0.7,2.8-0.2,4.5c0.1-0.1,0.1-0.2,0.2-0.3c8.5,4.4,14.4,3.6,21.3,0
				c4.8-2.5,8.3-9.5,7.5-15.9c1.1,8.6,13.7,12.3,17.4,3.2c3.7,6.4,13.4,10.6,23,11.5l0,0c9.6-1,19.3-5.1,23-11.5
				c3.7,9.1,16.3,5.5,17.4-3.2c-0.7,6.4,2.8,13.4,7.5,15.9c6.8,3.6,12.8,4.4,21.3,0C766,223.1,766,223.3,766.1,223.4z"/>
			<path class="st5" d="M590.8,217.2c0-0.9,0.1-1.7,0.2-2.5c-7.2-6-12.2-14.4-12.9-24.4c-0.7,11.9,4.6,21.7,12.8,28.5
				C590.8,218.2,590.8,217.7,590.8,217.2z"/>
			<path class="st5" d="M601.7,234c-5.7-2.3-10-8-10.7-14.8c-0.1,0.7-0.1,1.4-0.1,2.1c0,7.1,3.8,13.2,9.3,16.1
				C600.5,236.3,601.1,235.1,601.7,234z"/>
			<path class="st5" d="M802.4,214.6c0.1,0.8,0.2,1.7,0.2,2.5c0,0.5,0,1.1-0.1,1.6c8.2-6.8,13.5-16.7,12.8-28.5
				C814.7,200.3,809.7,208.6,802.4,214.6z"/>
			<path class="st5" d="M791.7,234c0.6,1.1,1.1,2.3,1.6,3.5c5.5-3,9.3-9.1,9.3-16.1c0-0.7,0-1.4-0.1-2.1
				C801.7,226.1,797.5,231.7,791.7,234z"/>
		</g>
	</g>
	<g>
		<g>
			<g>
				<path class="st1" d="M871.2,279c-2-29,3.6-53.7,20.3-69.4c14.2-14.1,29.9-31.5,8.1-59.5c-16.5-17.4-45,22.2-46.9,38.8
					c-1.8,17.5,1,35.9,4.6,52.7c1.8,8.7,7.3,27.2,10.1,35.5L871.2,279z"/>
			</g>
			<g>
				<path class="st3" d="M874.7,158.9c3.1-4,17-13.1,26.8-6.3c-15.8-23.5-46.9,19.4-48.8,36.3c-1.9,17.5,1,35.9,4.6,52.7
					c1.8,8.7,7.3,27.2,10.1,35.5l0.9,0.6C856.9,231.8,841.8,190.2,874.7,158.9z"/>
			</g>
		</g>
		<g>
			<g>
				<path class="st1" d="M1030.6,279c2-29-3.6-53.7-20.3-69.4c-14.2-14.1-29.9-31.5-8.1-59.5c16.5-17.4,45,22.2,46.9,38.7
					c1.8,17.5-1,35.9-4.6,52.7c-1.8,8.7-7.3,27.2-10.1,35.5L1030.6,279z"/>
			</g>
			<g>
				<path class="st3" d="M1025,156.3c-3.1-4-19.1-5.1-24.7-3.7c15.8-23.5,46.9,19.4,48.8,36.3c1.9,17.5-1,35.9-4.6,52.7
					c-1.8,8.7-7.3,27.2-10.1,35.5l-0.8,0.6C1045,231.8,1058,187.5,1025,156.3z"/>
			</g>
		</g>
		<g>
			<g>
				<path class="st1" d="M913.2,181.6c55.7,31.4,84.1,12,99.9-21.3c7.8-16.9,23.6-27.7,43.8-28.8c-19.2-36.6-78.1-48.8-119.1-26
					C901.9,126.5,878,158.7,913.2,181.6z"/>
			</g>
			<g>
				<path class="st2" d="M976.9,164.8c-5.6,4.1-12.6,10.7-16.7,6.1c-14.2-13,1.4-34.9,20.2-41.8c-24.9,3.1-48.2,29.8-71.4,18.1
					c-4-1.5-6.8-4.1-8.6-7.5c-7.9,14.5-6.1,29.5,12.9,41.8c55.7,31.4,84.1,12,99.9-21.3c7.8-16.9,23.6-27.7,43.8-28.8
					c-0.4-0.8-0.9-1.6-1.4-2.4C1026.3,120.7,996.8,142.9,976.9,164.8z"/>
			</g>
			<g>
				<path class="st3" d="M1008,100.7c18,2.5,31.8,14.7,46.3,26c-21.6-33-77.1-43.2-116.3-21.4c-10.3,6-19.6,12.9-26.8,20.2
					C937.7,105,973.5,94.9,1008,100.7z"/>
			</g>
		</g>
	</g>
	<g>
		<path class="st6" d="M640.1,444.7c-7.4,23.5,1.2,37.6,24.8,37.9c11.7,0.2,23.6-2.3,35-5.4c20.7-5.6,39.9-1.4,50.1,13.9
			c4.6,6.9,6.9,15.4,10.6,23.7c1.1-1,29.8-24.6,38.7,14.6c8.9,39.2,2.7,70.2-11.8,100.3c-0.8,1.3-3,4.2-3,4.2
			c-4.1-19.7-12.2-46.5-19.1-65.6c-7.9-21.8-26.4-26.3-44.1-12.1c-22.3,17.9-54.9,35.9-80.4,28.9c-30.4-8.4-70.6-67.9-33.4-127.5
			c2.3,7.6,4.1,13.8,5.9,19.9c2.5-23.5,12-44.2,30.2-44.2C642.2,438.3,641.1,441.5,640.1,444.7z"/>
		<g>
			<path class="st7" d="M637.7,462.7c-1.5,16.6,7.7,26.2,27.2,26.5c11.7,0.2,23.6-2.3,35-5.4c20.7-5.6,39.9-1.4,50.1,13.9
				c4.6,6.9,6.9,15.4,10.6,23.7c1.1-1,29.8-24.6,38.7,14.6c2.6,11.2,3.8,21.8,4.1,31.9c0.3-12-0.9-24.7-4.1-38.4
				c-8.9-39.2-37.7-15.6-38.7-14.6c-3.6-8.4-6-16.9-10.6-23.7c-10.2-15.3-29.4-19.5-50.1-13.9c-11.4,3.1-23.4,5.6-35,5.4
				C648.1,482.4,639,475.2,637.7,462.7z"/>
			<path class="st7" d="M607.7,464.3c2.3,7.6,4.1,13.8,5.9,19.9c2.4-22.5,11.2-42.4,28-44.1c0.6-1.9,1.3-4.1,2.2-6.7
				c-18.3,0-27.7,20.7-30.2,44.2c-1.8-6.2-3.7-12.4-5.9-19.9c-11.5,18.3-15.6,36.7-14.9,53.5C593.3,496.2,597.7,480.3,607.7,464.3z"
				/>
		</g>
		<path class="st8" d="M756.5,539c-33.2-25-67.5,26.3-98.9,31.1c-31.3,4.8-46.6-7.7-46.8-7.8c9,11.8,19.9,20,29.8,22.8
			c25.5,7.1,58.1-11,80.4-28.9c17.7-14.2,34.2-11.9,43.4,9.5c8.2,19,16,48.5,20.1,68.2C786.5,603.4,782.6,558.7,756.5,539z"/>
		<path class="st6" d="M608.9,559.5c0,0-17.7,12.2,3.2,74.5l7.8-61.6C619.8,572.4,615.1,568.5,608.9,559.5z"/>
		<path class="st8" d="M613.5,565.8c0,0-13.1,8.5-1.5,68.2l7.8-61.6C619.8,572.4,615.4,567.8,613.5,565.8z"/>
	</g>
	<g>
		<g>
			<path class="st1" d="M1045.4,627.6c4.6-23.3,8.8-61.8,7-82.1c-1.1-12.7-8.1-43.9-28.5-34.7c0.4-6.8-2.5-18.9-10.2-22
				c2.5,3.4,2.5,10.2,0,15.2c-8.5-11-17.6-11-30.3-13.6c-23.7-5.1-88.7-3.9-106.5,34.7c-10.2,22.1-10.2,75.9-5.2,102.5
				c0,0,1.9-77.1,44.6-73.3c0,0-4.7,14-10.9,22.6c0,0,21.2-4.8,39.9-17.4c-1,4.7-8.9,13.1-29.5,21.7c29.6-0.4,81.6-7,101.1-23.1
				C1038.4,559.3,1045.4,627.6,1045.4,627.6z"/>
		</g>
		<g>
			<path class="st2" d="M916.8,580.8c-0.3,0.1-0.6,0.3-0.9,0.4c29.6-0.4,81.6-7,101.1-23.1c2.9,0.2,5.6,1.6,8,4
				c-1.5-3.2-11.5-11.8-11.5-11.8C992.3,565.7,951.8,574.8,916.8,580.8z"/>
		</g>
		<g>
			<path class="st2" d="M905.4,576.9c0,0,21.2-4.8,39.9-17.4c-0.3,1.4-1.2,3.2-2.9,5.2c3.5-2.2,6-5.3,6-10.9
				C936.6,563.9,906.5,575.4,905.4,576.9z"/>
		</g>
		<g>
			<path class="st3" d="M1052.5,545.4c-1.1-12.7-8.1-43.9-28.5-34.7c0-0.5,0-1,0-1.5c-0.9,0.5-1.4,1.1-0.4,2.1
				c21.4,9.4,27.8,34.5,28.7,62.1C1053,562.6,1053.1,552.8,1052.5,545.4z"/>
		</g>
		<g>
			<path class="st3" d="M1013.5,503.7C1013.5,503.7,1013.5,503.6,1013.5,503.7c-8.4-10.8-17.4-10.8-30-13.3
				c-23.7-5.1-88.7-3.9-106.5,34.7c-2.6,5.5-4.5,13.1-5.8,21.7C892.4,496.8,954.9,485.3,1013.5,503.7z"/>
		</g>
	</g>
</g>
</svg>
