<?xml version="1.0" encoding="UTF-8"?>
<svg xmlns="http://www.w3.org/2000/svg" xmlns:xlink="http://www.w3.org/1999/xlink" width="2836" height="2836" viewBox="0 0 2836 2836">
<path fill-rule="evenodd" fill="rgb(100%, 100%, 100%)" fill-opacity="1" d="M 0.882812 0.46875 L 2835.53125 0.46875 L 2835.53125 2835.117188 L 0.882812 2835.117188 L 0.882812 0.46875 "/>
<path fill-rule="nonzero" fill="rgb(0%, 0%, 0%)" fill-opacity="1" d="M 1198.488281 1541.851562 C 1177.609375 1540.308594 1157.558594 1539.78125 1138.339844 1540.28125 C 1135.371094 1540.359375 1133.261719 1541.03125 1131.921875 1542.101562 C 1131.28125 1542.609375 1130.808594 1543.261719 1130.5 1543.988281 C 1130.109375 1544.921875 1129.941406 1546.011719 1129.96875 1547.199219 C 1130.050781 1550.460938 1131.578125 1554.238281 1134.390625 1557.761719 L 1335.519531 1810.058594 C 1358.160156 1834.890625 1374.570312 1863.992188 1384.761719 1897.371094 C 1394.898438 1930.566406 1398.828125 1967.902344 1396.558594 2009.375 C 1394.871094 2040.085938 1387.378906 2065.167969 1379.648438 2091.027344 C 1374.71875 2107.550781 1369.679688 2124.40625 1366.148438 2142.890625 C 1362.378906 2162.664062 1360.269531 2181.230469 1359.839844 2198.574219 C 1359.410156 2215.65625 1360.589844 2231.636719 1363.390625 2246.507812 C 1380.488281 2307.117188 1405.980469 2353.601562 1441.699219 2386.804688 C 1477.269531 2419.875 1523.25 2439.984375 1581.480469 2447.996094 L 1581.699219 2448.019531 C 1601.96875 2450.34375 1623.121094 2449.203125 1642.601562 2445.035156 C 1661.578125 2440.976562 1678.871094 2434.082031 1692.078125 2424.773438 L 1692.371094 2424.554688 C 1740.558594 2390.34375 1766.429688 2333.863281 1771.871094 2273.980469 C 1777.339844 2213.722656 1762.148438 2150.1875 1728.21875 2102.347656 C 1727.738281 2101.683594 1727.359375 2100.933594 1727.089844 2100.113281 C 1725.921875 2096.464844 1727.128906 2094.515625 1729.648438 2090.851562 C 1731.109375 2088.730469 1733.558594 2085.1875 1736.449219 2080.796875 C 1738.820312 2077.1875 1740.140625 2075.175781 1740.140625 2075.035156 C 1740.128906 2074.804688 1738.929688 2074.214844 1736.261719 2071.800781 L 1730.378906 2066.535156 L 1724.101562 2060.933594 C 1722.738281 2059.738281 1721.789062 2058.816406 1720.910156 2057.976562 C 1719.460938 2056.582031 1718.671875 2055.824219 1716.96875 2057.078125 L 1706.480469 2064.804688 C 1703.449219 2067.074219 1699.128906 2066.90625 1696.28125 2064.222656 C 1679.011719 2047.917969 1658.679688 2033.695312 1635.289062 2021.5625 C 1611.75 2009.351562 1585.078125 1999.234375 1555.300781 1991.222656 L 1555.300781 1991.203125 C 1554.949219 1991.109375 1554.609375 1990.992188 1554.269531 1990.851562 C 1534.5 1982.472656 1516.789062 1970.203125 1501.160156 1954.039062 C 1485.671875 1938.035156 1472.269531 1918.261719 1460.960938 1894.714844 C 1450.378906 1872.699219 1445.859375 1853.5 1441.449219 1834.710938 C 1437.980469 1819.910156 1434.558594 1805.359375 1428.269531 1790.308594 C 1415.019531 1758.628906 1402.960938 1743.859375 1382.558594 1718.851562 L 1274.601562 1586.308594 C 1267.300781 1577.449219 1260.949219 1570.179688 1254.75 1564.269531 C 1248.871094 1558.648438 1243.121094 1554.300781 1236.75 1550.988281 L 1236.75 1550.980469 C 1231.808594 1548.421875 1226.488281 1546.460938 1220.429688 1545 C 1214.171875 1543.488281 1206.980469 1542.480469 1198.488281 1541.851562 Z M 350.253906 2140.636719 C 343.953125 2147.199219 355.121094 2162.019531 364.605469 2152.988281 L 1078.558594 1502.921875 C 1062.230469 1480.519531 1046.140625 1458.820312 1030.230469 1437.738281 C 817.199219 1656.910156 411.171875 2074.710938 350.253906 2140.636719 Z M 1265.378906 1332.808594 L 2032.910156 633.949219 C 2050.628906 614.488281 2054.308594 593 2043.941406 569.46875 C 2030.160156 538.191406 2003.71875 519.570312 1977.53125 499.851562 C 1893.441406 436.53125 1840.238281 399.148438 1817.921875 387.71875 C 1809.648438 382.929688 1803.199219 392.121094 1807.578125 398.109375 C 1879.96875 474.929688 1930.371094 529.480469 1958.78125 561.78125 L 1941.21875 577.621094 C 1908.820312 541.351562 1793.511719 410.71875 1786.238281 416.96875 C 1779.730469 422.570312 1897.691406 551.25 1930.460938 587.328125 L 1915.941406 600.421875 C 1883.539062 564.160156 1768.230469 433.519531 1760.960938 439.769531 C 1754.449219 445.371094 1872.410156 574.050781 1905.179688 610.128906 L 1890.660156 623.21875 C 1858.261719 586.949219 1742.949219 456.320312 1735.691406 462.570312 C 1729.179688 468.171875 1847.121094 596.839844 1879.898438 632.929688 L 1865.390625 646.019531 C 1832.96875 609.738281 1717.679688 479.121094 1710.410156 485.371094 C 1703.898438 490.96875 1821.839844 619.640625 1854.621094 655.730469 L 1840.109375 668.820312 C 1807.679688 632.53125 1692.390625 501.921875 1685.128906 508.171875 C 1678.621094 513.769531 1796.539062 642.421875 1829.351562 678.53125 L 1814.828125 691.621094 C 1782.378906 655.308594 1667.121094 524.730469 1659.851562 530.96875 C 1653.351562 536.570312 1771.25 665.210938 1804.070312 701.328125 L 1789.550781 714.421875 C 1757.109375 678.121094 1641.839844 547.519531 1634.578125 553.769531 C 1628.070312 559.371094 1745.988281 688.03125 1778.789062 724.128906 L 1764.28125 737.230469 C 1731.851562 700.941406 1616.558594 570.328125 1609.300781 576.570312 C 1602.78125 582.171875 1720.730469 710.839844 1753.511719 746.941406 L 1739 760.03125 C 1706.578125 723.75 1591.289062 593.128906 1584.019531 599.378906 C 1577.511719 604.96875 1695.460938 733.660156 1728.230469 769.730469 L 1713.71875 782.828125 C 1681.308594 746.570312 1566.011719 615.929688 1558.738281 622.171875 C 1552.230469 627.78125 1670.191406 756.460938 1702.949219 792.539062 L 1688.441406 805.628906 C 1656.039062 769.371094 1540.730469 638.730469 1533.460938 644.980469 C 1526.949219 650.578125 1644.910156 779.269531 1677.679688 815.339844 L 1663.160156 828.429688 C 1630.761719 792.171875 1515.449219 661.53125 1508.191406 667.78125 C 1501.671875 673.378906 1619.628906 802.058594 1652.398438 838.140625 L 1637.890625 851.230469 C 1605.480469 814.960938 1490.179688 684.328125 1482.910156 690.578125 C 1476.398438 696.179688 1594.339844 824.859375 1627.121094 860.941406 L 1612.609375 874.03125 C 1580.191406 837.75 1464.890625 707.128906 1457.628906 713.378906 C 1451.121094 718.980469 1569.050781 847.640625 1601.839844 883.738281 L 1587.328125 896.828125 C 1554.890625 860.53125 1439.621094 729.929688 1432.351562 736.179688 C 1425.839844 741.78125 1543.761719 870.421875 1576.558594 906.539062 L 1562.050781 919.628906 C 1529.601562 883.320312 1414.339844 752.738281 1407.078125 758.980469 C 1400.558594 764.578125 1518.488281 893.230469 1551.289062 929.351562 L 1536.769531 942.441406 C 1504.351562 906.148438 1389.058594 775.539062 1381.800781 781.78125 C 1375.289062 787.378906 1493.230469 916.050781 1526.011719 952.148438 L 1511.5 965.238281 C 1479.078125 928.960938 1363.78125 798.339844 1356.519531 804.578125 C 1350.011719 810.179688 1467.960938 938.871094 1500.730469 974.949219 L 1486.21875 988.039062 C 1453.808594 951.78125 1338.511719 821.140625 1331.238281 827.390625 C 1324.730469 832.988281 1442.691406 961.671875 1475.449219 997.75 L 1460.941406 1010.839844 C 1428.539062 974.578125 1313.230469 843.941406 1305.960938 850.191406 C 1299.449219 855.789062 1417.410156 984.480469 1450.179688 1020.550781 L 1435.660156 1033.640625 C 1403.261719 997.378906 1287.949219 866.738281 1280.691406 872.988281 C 1274.171875 878.589844 1392.128906 1007.269531 1424.898438 1043.351562 L 1410.378906 1056.441406 C 1377.96875 1020.171875 1262.671875 889.539062 1255.410156 895.789062 C 1248.898438 901.390625 1366.839844 1030.058594 1399.621094 1066.148438 L 1385.109375 1079.238281 C 1352.679688 1042.960938 1237.398438 912.339844 1230.128906 918.589844 C 1223.621094 924.191406 1341.539062 1052.839844 1374.339844 1088.949219 L 1359.828125 1102.039062 C 1327.378906 1065.738281 1212.121094 935.140625 1204.851562 941.390625 C 1198.339844 946.988281 1316.25 1075.628906 1349.070312 1111.75 L 1334.550781 1124.839844 C 1302.121094 1088.550781 1186.839844 957.941406 1179.570312 964.191406 C 1173.058594 969.789062 1291 1098.460938 1323.789062 1134.550781 L 1309.269531 1147.648438 C 1276.859375 1111.371094 1161.558594 980.738281 1154.300781 986.988281 C 1147.78125 992.589844 1265.738281 1121.269531 1298.511719 1157.351562 L 1283.988281 1170.449219 C 1251.589844 1134.191406 1136.28125 1003.550781 1129.019531 1009.800781 C 1122.5 1015.398438 1240.46875 1144.089844 1273.230469 1180.160156 L 1260.828125 1191.339844 C 1219.738281 1145.789062 1154.761719 1075.308594 1115.058594 1032.898438 C 1109.328125 1026.539062 1100.921875 1032.230469 1104.859375 1040.679688 C 1140.859375 1108.609375 1161.761719 1151.929688 1167.589844 1170.628906 C 1177.941406 1205.671875 1180.5 1236.390625 1175.28125 1262.78125 Z M 1303.46875 1212.980469 L 1557.960938 983.429688 L 1987.378906 596.089844 C 1989.511719 594.160156 1992.828125 594.328125 1994.761719 596.46875 C 1996.691406 598.601562 1996.519531 601.929688 1994.378906 603.851562 L 1564.96875 991.199219 L 1310.480469 1220.75 L 1304.199219 1226.410156 C 1302.070312 1228.328125 1298.738281 1228.160156 1296.820312 1226.03125 C 1294.890625 1223.890625 1295.058594 1220.558594 1297.199219 1218.640625 Z M 996.585938 1207.378906 C 1010.898438 1207.378906 1022.5 1218.980469 1022.5 1233.289062 C 1022.5 1247.601562 1010.898438 1259.199219 996.585938 1259.199219 C 982.273438 1259.199219 970.671875 1247.601562 970.671875 1233.289062 C 970.671875 1218.980469 982.273438 1207.378906 996.585938 1207.378906 Z M 2217.101562 1895.382812 L 2217.738281 1895.574219 C 2220.519531 1896.25 2222.839844 1898.410156 2223.589844 1901.378906 C 2223.589844 1901.382812 2223.78125 1902.046875 2224.199219 1903.242188 C 2259.160156 1904.039062 2296.621094 1908.726562 2336.769531 1917.3125 C 2377.628906 1926.050781 2421.378906 1938.851562 2468.191406 1955.722656 C 2489.761719 1937.140625 2493.710938 1912.730469 2480.039062 1882.488281 C 2437.550781 1882.890625 2395.289062 1881.503906 2353.378906 1878.0625 C 2311.878906 1874.652344 2270.53125 1869.230469 2229.410156 1861.550781 L 2228.910156 1863.039062 C 2227.960938 1866.566406 2224.660156 1869.066406 2220.890625 1868.910156 C 2222.621094 1839.171875 2216.660156 1806.890625 2204.519531 1776.210938 C 2186.628906 1730.988281 2155.429688 1689.480469 2115.808594 1664.859375 C 2079.800781 1642.480469 2041.988281 1626 2002.539062 1617.960938 C 1968.5 1611.03125 1933.160156 1610.378906 1896.589844 1617.648438 C 1877.128906 1621.519531 1861.828125 1629.511719 1843.308594 1636.371094 C 1831.070312 1640.898438 1818.871094 1644.96875 1806.730469 1648.578125 C 1782.238281 1655.789062 1710.871094 1646.46875 1684.859375 1639.761719 C 1646.609375 1629.890625 1610.390625 1613.230469 1576.210938 1589.769531 C 1509.980469 1544.710938 1420.511719 1461.53125 1355.378906 1407.878906 L 1355.371094 1407.890625 C 1349.488281 1402.890625 1344.21875 1398.199219 1339.289062 1393.808594 C 1329.621094 1385.199219 1321.261719 1377.761719 1316.179688 1374.789062 L 1315.789062 1374.550781 C 1313.519531 1373.308594 1311.601562 1373.03125 1310.109375 1373.511719 C 1308.890625 1373.890625 1307.738281 1374.808594 1306.710938 1376.140625 C 1306.738281 1379.121094 1306.660156 1383.519531 1306.558594 1388.921875 C 1306.199219 1408.320312 1305.601562 1441.238281 1308.96875 1465.261719 C 1309.878906 1471.738281 1311.539062 1477.140625 1313.46875 1481.421875 C 1315.648438 1486.238281 1317.96875 1489.320312 1319.761719 1490.671875 C 1319.960938 1490.820312 1320.148438 1490.980469 1320.328125 1491.148438 L 1370.71875 1534.011719 C 1487.460938 1633.308594 1520.460938 1661.378906 1552.960938 1677.328125 C 1600.289062 1680.320312 1647.210938 1693.609375 1685.691406 1718.710938 C 1720.371094 1741.308594 1748.179688 1773.421875 1763.328125 1816.121094 C 1781.101562 1866.152344 1799.441406 1903.84375 1822.75 1932.644531 C 1845.828125 1961.148438 1873.980469 1981.164062 1911.578125 1996.152344 C 1914.671875 1997.382812 1917.78125 1998.558594 1920.878906 1999.671875 L 1920.890625 1999.644531 C 1978.441406 2020.253906 2042.050781 2022.09375 2095.988281 2006.863281 C 2149.191406 1991.839844 2192.820312 1960.226562 2211.351562 1913.738281 C 2211.730469 1912.789062 2212.269531 1911.339844 2212.96875 1909.382812 C 2214.589844 1904.84375 2215.960938 1900.171875 2217.101562 1895.382812 Z M 1046.03125 1187.558594 L 1045.878906 1187.71875 L 1044.769531 1186.578125 L 390.40625 678.011719 C 388.425781 676.828125 385.925781 676.621094 383.714844 677.179688 C 382.617188 677.46875 381.648438 677.929688 380.945312 678.558594 C 380.5 678.949219 380.183594 679.410156 380.070312 679.910156 C 379.828125 680.988281 380.222656 682.550781 381.539062 684.679688 L 932.292969 1263.339844 L 932.324219 1263.320312 L 932.476562 1263.53125 L 1071.96875 1410.101562 L 1076.28125 1414.640625 C 1093.070312 1432.429688 1094.679688 1434.140625 1125.238281 1431.980469 C 1136.890625 1431.160156 1154.078125 1426.75 1171.121094 1422.378906 C 1195.058594 1416.230469 1218.71875 1410.160156 1230.53125 1413.320312 C 1242.28125 1416.460938 1254.320312 1420.839844 1266.671875 1426.46875 C 1274.640625 1430.101562 1282.699219 1434.25 1290.851562 1438.898438 C 1290.089844 1420.429688 1290.441406 1401.621094 1290.671875 1388.671875 C 1290.75 1384.230469 1290.820312 1380.511719 1290.820312 1377.820312 Z M 962.601562 1102.539062 L 475.074219 603.871094 C 472.457031 601.828125 470.066406 601.25 468.296875 601.730469 C 467.628906 601.898438 467.054688 602.238281 466.621094 602.679688 C 466.175781 603.128906 465.828125 603.761719 465.636719 604.53125 C 465.03125 606.898438 465.867188 610.238281 468.933594 614.070312 L 469.359375 614.621094 L 636.941406 849.429688 Z M 1173.171875 1438.238281 C 1155.949219 1442.660156 1138.738281 1446.988281 1126.359375 1447.871094 C 1088.300781 1450.558594 1086.230469 1448.359375 1064.691406 1425.550781 L 1060.449219 1421.058594 L 998.300781 1355.761719 L 1122.261719 1529.449219 C 1126.148438 1526.441406 1131.371094 1524.570312 1137.96875 1524.398438 C 1153.199219 1524 1168.769531 1524.210938 1184.679688 1525.03125 C 1179.429688 1512.160156 1175.808594 1498.578125 1173.839844 1484.46875 C 1171.75 1469.589844 1171.519531 1454.109375 1173.171875 1438.238281 Z M 1964.289062 1642.121094 C 2013.839844 1642.121094 2068.390625 1664.191406 2110.441406 1699.808594 C 2149.328125 1732.75 2177.710938 1777.371094 2181.941406 1827.039062 C 2182.359375 1831.96875 2182.570312 1836.777344 2182.570312 1841.453125 C 2182.570312 1885.816406 2164.519531 1921.171875 2135.941406 1946.34375 C 2107.699219 1971.21875 2069.191406 1985.992188 2027.800781 1989.519531 C 2021.320312 1990.070312 2014.808594 1990.351562 2008.28125 1990.351562 L 2005.820312 1990.300781 C 1958.710938 1989.542969 1906.871094 1967.046875 1866.910156 1932.296875 C 1826.679688 1897.324219 1798.230469 1849.804688 1798.230469 1799.25 L 1798.191406 1799.25 C 1798.191406 1798.628906 1798.210938 1798.988281 1798.238281 1797.109375 L 1798.238281 1797.089844 C 1799.039062 1747.359375 1815.628906 1709.429688 1843.539062 1683.449219 C 1873.101562 1655.941406 1915.109375 1642.121094 1964.289062 1642.121094 Z M 1538.949219 2033.890625 C 1586.039062 2033.890625 1638.628906 2057.199219 1678.230469 2096.445312 C 1713.320312 2131.21875 1738.328125 2178.578125 1740.429688 2233.410156 C 1740.519531 2235.648438 1740.578125 2238 1740.609375 2240.457031 C 1741.398438 2295.464844 1726.160156 2338.785156 1699.410156 2368.898438 C 1672.480469 2399.210938 1634.101562 2415.980469 1588.769531 2417.71875 C 1587.28125 2417.773438 1585.640625 2417.816406 1583.859375 2417.84375 C 1581.921875 2417.867188 1583.058594 2417.882812 1582.128906 2417.882812 C 1535.078125 2417.882812 1487.921875 2390.875 1452.449219 2351.339844 C 1417.210938 2312.0625 1393.351562 2260.1875 1392.640625 2210.117188 C 1392.609375 2208.007812 1392.589844 2208.40625 1392.589844 2207.824219 C 1392.589844 2156.699219 1406.929688 2113.035156 1432.628906 2082.226562 C 1458.089844 2051.710938 1494.46875 2033.890625 1538.949219 2033.890625 "/>
</svg>
